<svg width="440" height="311" viewBox="0 0 440 311" fill="none" xmlns="http://www.w3.org/2000/svg">
<path d="M186.923 132.615C186.232 132.107 185.573 131.558 184.948 130.97L185.803 130.062C186.391 130.615 187.012 131.132 187.663 131.61L186.923 132.615Z" fill="#E4E4E4"/>
<path d="M181.516 126.78C180.559 125.24 179.805 123.584 179.273 121.852L180.466 121.485C180.966 123.115 181.675 124.673 182.575 126.121L181.516 126.78ZM178.357 116.517C178.345 116.222 178.339 115.927 178.339 115.632C178.339 114.116 178.502 112.605 178.827 111.124L180.045 111.391C179.74 112.784 179.587 114.206 179.587 115.632C179.587 115.91 179.592 116.187 179.604 116.465L178.357 116.517ZM181.77 106.601L180.661 106.03C181.176 105.03 181.77 104.073 182.437 103.167C182.846 102.611 183.288 102.081 183.76 101.578L184.669 102.432C184.231 102.899 183.821 103.391 183.442 103.906C182.814 104.759 182.255 105.66 181.77 106.601H181.77ZM188.672 99.3644L188.083 98.2647C189.694 97.4021 191.433 96.805 193.233 96.4964L193.445 97.726C191.776 98.0118 190.164 98.5651 188.672 99.3644H188.672ZM203.289 99.2282C201.785 98.4537 200.164 97.9293 198.491 97.6757L198.678 96.4424C200.485 96.7163 202.235 97.2825 203.86 98.1187L203.289 99.2282Z" fill="#E4E4E4"/>
<path d="M208.727 104.165C208.319 103.486 207.846 102.848 207.315 102.259L208.242 101.424C208.826 102.072 209.347 102.775 209.796 103.522L208.727 104.165Z" fill="#E4E4E4"/>
<path d="M160.898 90.8938L159.893 90.1547C160.392 89.4761 160.918 88.805 161.457 88.1602L162.414 88.9598C161.892 89.5851 161.382 90.2359 160.898 90.8938Z" fill="#E4E4E4"/>
<path d="M222.713 89.4509C221.754 88.1205 220.692 86.8678 219.537 85.7043L220.422 84.8251C221.624 86.0353 222.728 87.3382 223.725 88.7219L222.713 89.4509ZM165.809 85.3764L164.959 84.4631C166.203 83.306 167.519 82.2285 168.899 81.2369L169.627 82.2501C168.29 83.2109 167.015 84.2551 165.809 85.3764ZM215.812 82.4998C214.485 81.5258 213.099 80.6349 211.661 79.8322L212.269 78.7427C213.752 79.5706 215.181 80.4896 216.55 81.4944L215.812 82.4998ZM173.807 79.631L173.213 78.5342C174.707 77.7256 176.25 77.0115 177.833 76.3961L178.285 77.5587C176.751 78.1553 175.255 78.8474 173.807 79.631ZM207.211 77.7053C205.684 77.0912 204.12 76.574 202.528 76.1567L202.844 74.9498C204.487 75.3805 206.101 75.9143 207.677 76.548L207.211 77.7053ZM182.987 76.0633L182.684 74.8532C184.331 74.4411 186.003 74.1319 187.689 73.9273L187.839 75.1658C186.204 75.3642 184.584 75.6639 182.987 76.0633V76.0633ZM197.687 75.2105C196.054 74.9976 194.41 74.887 192.764 74.8794L192.77 73.6318C194.468 73.6399 196.164 73.754 197.848 73.9736L197.687 75.2105Z" fill="#E4E4E4"/>
<path d="M226.274 95.8846C225.967 95.1321 225.627 94.3833 225.263 93.659L226.378 93.0986C226.756 93.8521 227.11 94.6308 227.429 95.4132L226.274 95.8846Z" fill="#E4E4E4"/>
<path d="M229.694 169.194L229.265 168.023C230.034 167.742 230.808 167.44 231.568 167.128L232.042 168.282C231.268 168.6 230.478 168.907 229.694 169.194Z" fill="#E4E4E4"/>
<path d="M210.242 173.005L210.196 171.759C211.815 171.699 213.451 171.575 215.059 171.39L215.202 172.629C213.562 172.818 211.893 172.945 210.242 173.005ZM205.267 172.991C203.614 172.921 201.946 172.784 200.308 172.584L200.459 171.346C202.064 171.541 203.699 171.675 205.32 171.744L205.267 172.991ZM220.118 171.865L219.879 170.641C221.467 170.33 223.064 169.951 224.624 169.516L224.959 170.718C223.368 171.162 221.739 171.548 220.118 171.865ZM195.398 171.787C193.778 171.458 192.153 171.06 190.565 170.603L190.91 169.405C192.466 169.852 194.059 170.242 195.646 170.565L195.398 171.787ZM185.842 169.04C184.296 168.458 182.754 167.807 181.258 167.105L181.789 165.976C183.254 166.664 184.766 167.302 186.281 167.872L185.842 169.04ZM176.843 164.814C175.412 163.998 173.992 163.113 172.623 162.182L173.324 161.15C174.667 162.062 176.059 162.93 177.461 163.73L176.843 164.814Z" fill="#E4E4E4"/>
<path d="M168.609 159.206C167.958 158.675 167.313 158.121 166.692 157.561L167.528 156.635C168.134 157.182 168.763 157.721 169.398 158.24L168.609 159.206Z" fill="#E4E4E4"/>
<path d="M134.071 33.4222L133.43 32.3518C134.147 31.9229 134.877 31.4984 135.601 31.0898L136.214 32.1761C135.499 32.5796 134.778 32.9987 134.071 33.4222Z" fill="#E4E4E4"/>
<path d="M254.175 50.459C253.106 49.2139 251.981 47.9857 250.831 46.809L251.724 45.9371C252.892 47.1331 254.035 48.381 255.122 49.6464L254.175 50.459ZM247.26 43.3808C246.041 42.2833 244.768 41.2086 243.477 40.1869L244.251 39.2086C245.563 40.2468 246.856 41.3386 248.095 42.4537L247.26 43.3808ZM239.5 37.2306C238.151 36.2832 236.762 35.3595 235.373 34.4856L236.038 33.4298C237.445 34.3148 238.851 35.2501 240.217 36.2097L239.5 37.2306ZM231.113 31.9542C229.679 31.1506 228.204 30.3731 226.73 29.6434L227.283 28.5254C228.777 29.2643 230.271 30.0519 231.723 30.8659L231.113 31.9542ZM140.595 29.8503L140.038 28.7339C141.53 27.9902 143.062 27.2755 144.59 26.6095L145.088 27.753C143.58 28.4105 142.068 29.1161 140.595 29.8503L140.595 29.8503ZM222.233 27.5609C220.722 26.9079 219.175 26.286 217.634 25.7124L218.07 24.5433C219.631 25.1244 221.198 25.7544 222.728 26.4158L222.233 27.5609ZM149.684 25.8889L149.244 24.7213C150.803 24.1352 152.399 23.5806 153.989 23.0734L154.368 24.2621C152.798 24.7628 151.222 25.3102 149.684 25.8889L149.684 25.8889ZM212.946 24.1031C211.378 23.6097 209.775 23.1504 208.181 22.738L208.494 21.5303C210.108 21.948 211.732 22.4133 213.321 22.9132L212.946 24.1031ZM159.13 22.8765L158.812 21.67C160.422 21.2458 162.066 20.8568 163.7 20.514L163.956 21.7348C162.343 22.0734 160.719 22.4576 159.13 22.8765L159.13 22.8765ZM203.352 21.6198C201.742 21.2903 200.1 20.9981 198.471 20.7514L198.658 19.5181C200.308 19.7678 201.971 20.0639 203.602 20.3975L203.352 21.6198ZM168.833 20.8407L168.64 19.6082C170.285 19.3498 171.96 19.1299 173.619 18.9548L173.75 20.1955C172.112 20.3685 170.458 20.5855 168.833 20.8407V20.8407ZM193.552 20.1347C191.916 19.9719 190.253 19.8495 188.608 19.7705L188.667 18.5246C190.334 18.6044 192.019 18.7284 193.676 18.8933L193.552 20.1347ZM178.694 19.8013L178.626 18.5559C180.292 18.4655 181.981 18.4172 183.647 18.4121L183.65 19.6596C182.006 19.6647 180.338 19.7124 178.694 19.8013L178.694 19.8013Z" fill="#E4E4E4"/>
<path d="M258.751 56.3434C258.278 55.6703 257.789 54.997 257.296 54.3424L258.294 53.5928C258.794 54.2582 259.291 54.9424 259.772 55.6267L258.751 56.3434Z" fill="#E4E4E4"/>
<path d="M201.937 258.083C201.11 257.976 200.283 257.863 199.457 257.743L199.636 256.509C200.455 256.628 201.275 256.74 202.096 256.845L201.937 258.083Z" fill="#E4E4E4"/>
<path d="M194.407 256.925C192.737 256.625 191.049 256.292 189.389 255.936L189.651 254.717C191.297 255.07 192.972 255.4 194.628 255.697L194.407 256.925ZM184.408 254.78C182.758 254.368 181.096 253.923 179.468 253.457L179.811 252.258C181.426 252.72 183.074 253.161 184.71 253.57L184.408 254.78ZM174.575 251.968C172.957 251.446 171.329 250.89 169.736 250.315L170.159 249.141C171.739 249.711 173.354 250.263 174.959 250.781L174.575 251.968ZM164.955 248.5C163.38 247.872 161.794 247.208 160.238 246.525L160.739 245.383C162.282 246.06 163.856 246.719 165.418 247.342L164.955 248.5ZM155.59 244.393C154.06 243.659 152.521 242.89 151.017 242.106L151.594 241C153.085 241.777 154.611 242.54 156.13 243.268L155.59 244.393ZM146.523 239.667C145.051 238.835 143.567 237.965 142.113 237.079L142.762 236.014C144.204 236.892 145.676 237.756 147.136 238.58L146.523 239.667ZM137.792 234.346C136.374 233.417 134.951 232.449 133.563 231.472L134.281 230.452C135.658 231.422 137.07 232.381 138.476 233.303L137.792 234.346ZM129.429 228.456C128.073 227.426 126.723 226.356 125.416 225.277L126.211 224.315C127.504 225.384 128.841 226.443 130.184 227.462L129.429 228.456ZM121.538 221.935C120.273 220.799 119.016 219.622 117.801 218.435L118.673 217.543C119.876 218.717 121.12 219.883 122.372 221.007L121.538 221.935ZM114.215 214.781C113.05 213.543 111.896 212.265 110.785 210.98L111.728 210.164C112.828 211.435 113.97 212.701 115.123 213.926L114.215 214.781ZM107.517 207.038C106.46 205.706 105.418 204.335 104.419 202.961L105.428 202.228C106.417 203.587 107.448 204.944 108.495 206.262L107.517 207.038Z" fill="#E4E4E4"/>
<path d="M101.48 198.736C101.017 198.039 100.562 197.338 100.114 196.634L101.167 195.965C101.61 196.662 102.061 197.356 102.519 198.045L101.48 198.736Z" fill="#E4E4E4"/>
<path d="M368.362 53.9731L352.812 68.2878L365.17 47.5535C355.434 29.8987 339.51 14.6406 339.51 14.6406C339.51 14.6406 306.473 46.2894 306.473 71.1675C306.473 96.0455 321.264 104.732 339.51 104.732C357.755 104.732 372.546 96.0455 372.546 71.1674C372.546 65.6301 370.907 59.7576 368.362 53.9731Z" fill="#F2F2F2"/>
<path d="M348.813 69.0624V70.2886C348.74 84.5426 346.336 95.6641 341.618 103.495C341.551 103.611 341.479 103.72 341.412 103.835L340.884 103.513L340.38 103.198C345.613 94.7413 347.465 82.7882 347.532 70.3554C347.538 69.9548 347.544 69.548 347.538 69.1413C347.52 63.878 347.198 58.5541 346.682 53.3818C346.645 52.9811 346.603 52.5744 346.56 52.1677C345.844 45.3443 344.812 38.8244 343.755 33.1604C343.682 32.7597 343.604 32.3591 343.525 31.9645C341.697 22.385 339.833 15.4462 339.408 13.9103C339.36 13.7221 339.329 13.6189 339.323 13.5947L339.9 13.4307L339.906 13.4247L340.489 13.2607C340.495 13.285 340.598 13.6311 340.768 14.2746C341.418 16.6785 343.106 23.2045 344.763 31.8127C344.836 32.2012 344.915 32.6019 344.988 33.0026C345.85 37.5981 346.694 42.7339 347.362 48.1246C347.532 49.4784 347.683 50.8139 347.817 52.1313C347.866 52.538 347.908 52.9447 347.945 53.3454C348.503 58.9365 348.792 64.1755 348.813 69.0624Z" fill="white"/>
<path d="M344.763 31.8131C344.357 31.8678 343.944 31.9224 343.525 31.9649C342.387 32.082 341.244 32.1408 340.101 32.141C335.227 32.1475 330.413 31.0604 326.015 28.96C325.76 29.2817 325.505 29.6034 325.244 29.9313C329.871 32.1894 334.952 33.3605 340.101 33.3551C341.322 33.3548 342.542 33.2899 343.756 33.1609C344.168 33.1183 344.581 33.0637 344.988 33.003C348.346 32.5214 351.611 31.5328 354.672 30.0709C354.411 29.737 354.156 29.4092 353.907 29.0874C351.01 30.4412 347.929 31.3597 344.763 31.8131Z" fill="white"/>
<path d="M347.817 52.1318C347.398 52.156 346.979 52.1682 346.56 52.1682C346.433 52.1743 346.299 52.1743 346.172 52.1743C340.89 52.1743 335.687 50.8975 331.006 48.4525C326.325 46.0076 322.305 42.4671 319.288 38.1328C319.045 38.491 318.802 38.8491 318.565 39.2134C321.71 43.5989 325.854 47.1722 330.655 49.6372C335.456 52.1023 340.775 53.3882 346.172 53.3884C346.342 53.3884 346.512 53.3884 346.682 53.3823C347.107 53.3763 347.525 53.3641 347.944 53.3459C354.427 53.0139 360.676 50.822 365.946 47.0324C365.752 46.6742 365.557 46.3161 365.357 45.9579C360.236 49.6786 354.14 51.8242 347.817 52.1318Z" fill="white"/>
<path d="M348.813 69.0627C348.388 69.0991 347.963 69.1234 347.538 69.1416C347.082 69.1598 346.627 69.172 346.172 69.172C339.075 69.1638 332.172 66.8574 326.496 62.5982C320.82 58.3389 316.677 52.3559 314.686 45.5449C314.413 46.0367 314.139 46.5223 313.878 47.014C316.121 53.8092 320.449 59.7248 326.246 63.9205C332.043 68.1162 339.015 70.3785 346.172 70.3862C346.627 70.3862 347.082 70.3801 347.532 70.3558C347.963 70.3436 348.388 70.3194 348.813 70.289C357.397 69.6175 365.405 65.7093 371.216 59.3557C371.088 58.9065 370.942 58.4633 370.797 58.0141C365.184 64.4153 357.299 68.3784 348.813 69.0627Z" fill="white"/>
<path d="M50.0622 63.8855L60.2048 82.4282L43.0616 65.4347C23.5778 70.6244 4.92773 82.3964 4.92773 82.3964C4.92773 82.3964 27.6765 122.089 51.8224 128.089C75.9683 134.09 87.9668 121.832 92.3679 104.127C96.7688 86.4219 91.9057 69.9738 67.7598 63.9731C62.3854 62.6375 56.2903 62.8115 50.0622 63.8855Z" fill="#F2F2F2"/>
<path d="M59.9925 86.4955L61.1827 86.7913C74.9996 90.3001 85.2139 95.3157 91.6767 101.782C91.7725 101.875 91.861 101.972 91.9569 102.065L91.5172 102.5L91.0893 102.912C84.144 95.7942 72.9893 91.1142 60.9385 88.0505C60.5511 87.948 60.1578 87.844 59.7616 87.7518C54.6488 86.4999 49.4039 85.528 44.2594 84.7811C43.8617 84.7198 43.4567 84.663 43.0517 84.6061C36.2562 83.6555 29.6792 83.0844 23.9271 82.7433C23.5207 82.7173 23.1128 82.6973 22.7107 82.6787C12.9723 82.1414 5.78818 82.2764 4.19498 82.3183C4.00062 82.32 3.89313 82.3246 3.8681 82.3247L3.84814 81.7254L3.8437 81.7181L3.8252 81.1129C3.85025 81.1129 4.21099 81.0962 4.87654 81.0865C7.36645 81.036 14.1075 80.9722 22.8622 81.4403C23.2568 81.4633 23.6648 81.4833 24.0712 81.5093C28.7394 81.7812 33.9277 82.2011 39.3208 82.8533C40.6758 83.0149 42.0086 83.1897 43.3194 83.3779C43.7259 83.4289 44.1309 83.4857 44.5286 83.547C50.0899 84.3535 55.2445 85.3364 59.9925 86.4955Z" fill="white"/>
<path d="M22.8622 81.4403C22.8171 81.8482 22.7706 82.262 22.7108 82.6788C22.55 83.811 22.3314 84.9342 22.0557 86.044C20.8863 90.7752 18.6703 95.1837 15.5708 98.9449C15.8216 99.2699 16.0724 99.5949 16.3275 99.9273C19.6352 95.9825 21.9975 91.334 23.2341 86.3369C23.5283 85.1521 23.7596 83.9526 23.9272 82.7434C23.9855 82.3325 24.032 81.9187 24.0712 81.5094C24.4138 78.1349 24.2418 74.7281 23.5612 71.4053C23.1741 71.5781 22.7945 71.7464 22.4221 71.9104C23.0373 75.048 23.1856 78.2593 22.8622 81.4403Z" fill="white"/>
<path d="M43.3195 83.3775C43.242 83.7898 43.1527 84.1992 43.0517 84.6058C43.0268 84.731 42.9946 84.8606 42.9639 84.9843C41.6901 90.1091 39.1958 94.8499 35.6937 98.8026C32.1916 102.755 27.7855 105.803 22.8511 107.685C23.1401 108.007 23.4292 108.329 23.7256 108.646C28.7405 106.653 33.2083 103.493 36.7588 99.4292C40.3093 95.3653 42.8403 90.514 44.1423 85.2772C44.1833 85.1122 44.2243 84.9472 44.2594 84.7808C44.356 84.367 44.4452 83.9575 44.5286 83.5466C45.77 77.1762 45.15 70.5831 42.743 64.5557C42.3485 64.6578 41.954 64.7599 41.558 64.868C43.9339 70.735 44.5461 77.1677 43.3195 83.3775Z" fill="white"/>
<path d="M59.9924 86.4958C59.9252 86.917 59.8463 87.3352 59.7614 87.7521C59.6693 88.1983 59.5712 88.6431 59.4614 89.0849C57.7417 95.9693 53.8382 102.112 48.3351 106.592C42.8321 111.072 36.0258 113.65 28.9351 113.939C29.3464 114.323 29.7519 114.705 30.1662 115.077C37.3024 114.539 44.0877 111.767 49.5582 107.154C55.0288 102.54 58.9062 96.3204 60.6398 89.3778C60.7497 88.9359 60.8536 88.4926 60.9384 88.0508C61.0306 87.6296 61.1096 87.2113 61.1826 86.7916C62.6014 78.2997 60.7398 69.5861 55.9748 62.415C55.508 62.4304 55.0428 62.4649 54.5716 62.4979C59.4307 69.4881 61.3751 78.0961 59.9924 86.4958Z" fill="white"/>
<path d="M78.4677 181.698L74.6675 177.829L79.327 170.705L87.3021 157.431C87.0415 156.859 86.9607 156.222 87.0703 155.603C87.18 154.984 87.4749 154.413 87.9161 153.966C88.3572 153.518 88.9239 153.215 89.5411 153.097C90.1583 152.978 90.7969 153.05 91.3725 153.302C91.9481 153.554 92.4335 153.976 92.7645 154.51C93.0955 155.044 93.2565 155.666 93.2263 156.294C93.1961 156.921 92.976 157.525 92.5951 158.025C92.2143 158.525 91.6906 158.897 91.0935 159.093L84.5107 173.264L78.4677 181.698Z" fill="#A0616A"/>
<path d="M74.258 190.53C73.8118 191.221 73.1761 191.769 72.4268 192.108C71.6775 192.447 70.8463 192.564 70.0327 192.443C69.2582 192.352 68.5273 192.036 67.9297 191.535C67.332 191.034 66.8937 190.37 66.6685 189.623C66.5026 189.094 66.4543 188.534 66.527 187.984C66.5996 187.433 66.7915 186.905 67.0891 186.437C69.6313 182.151 74.32 176.492 74.367 176.436L74.4417 176.346L82.3497 178.059L74.258 190.53Z" fill="#D6BB15"/>
<path d="M141.912 36.081L140.982 36.3673L133.138 10.8919C131.933 6.98142 129.225 3.70937 125.608 1.79557C121.991 -0.118238 117.762 -0.517034 113.852 0.686913H113.852L59.873 17.3041C57.9365 17.9002 56.1364 18.8719 54.5755 20.1636C53.0146 21.4553 51.7234 23.0418 50.7757 24.8325C49.828 26.6232 49.2423 28.583 49.052 30.6C48.8618 32.617 49.0707 34.6517 49.6669 36.588V36.5881L92.7004 176.348C93.9045 180.259 96.6128 183.531 100.23 185.444C103.846 187.358 108.075 187.757 111.986 186.553H111.986L165.965 169.936C169.876 168.732 173.148 166.024 175.062 162.407C176.976 158.791 177.375 154.562 176.171 150.652V150.652L146.565 54.5011L147.495 54.2148L141.912 36.081Z" fill="#3F3D56"/>
<path d="M115.628 4.34014L108.582 6.50923C109.15 7.20381 109.539 8.02755 109.715 8.90788C109.89 9.78821 109.846 10.6981 109.586 11.5575C109.327 12.4168 108.86 13.1992 108.228 13.8357C107.595 14.4722 106.815 14.9433 105.957 15.2074L75.0332 24.7272C74.1753 24.9912 73.2655 25.0403 72.3841 24.87C71.5027 24.6996 70.6768 24.3152 69.979 23.7505C69.2812 23.1858 68.733 22.4582 68.3827 21.6318C68.0324 20.8053 67.8907 19.9054 67.9702 19.0114L61.3892 21.0373C58.4686 21.9364 56.0248 23.9587 54.5955 26.6595C53.1661 29.3602 52.8683 32.518 53.7674 35.4383L96.7377 174.993C97.6369 177.914 99.6595 180.357 102.36 181.786C105.061 183.216 108.22 183.513 111.14 182.614H111.14L165.379 165.917C168.299 165.018 170.743 162.996 172.173 160.295C173.602 157.594 173.9 154.436 173.001 151.516L130.03 11.9611C129.131 9.04078 127.108 6.59726 124.407 5.16806C121.706 3.73886 118.548 3.44105 115.628 4.34014Z" fill="white"/>
<path d="M334.01 309.027L207.385 263.515C204.385 262.433 201.937 260.205 200.577 257.321C199.218 254.436 199.059 251.13 200.134 248.128L266.144 64.5122C267.226 61.5124 269.454 59.0644 272.339 57.7052C275.224 56.346 278.53 56.1866 281.533 57.2619L408.158 102.774C411.158 103.856 413.606 106.084 414.965 108.969C416.324 111.854 416.484 115.16 415.408 118.162L349.399 301.777C348.317 304.777 346.089 307.225 343.204 308.584C340.319 309.943 337.012 310.103 334.01 309.027Z" fill="#3F3D56"/>
<path d="M336.829 301.885L209.758 256.213C208.833 255.879 208.079 255.192 207.66 254.303C207.241 253.414 207.192 252.395 207.523 251.469L273.97 66.6379C274.303 65.7132 274.99 64.9586 275.88 64.5396C276.769 64.1206 277.788 64.0715 278.714 64.403L405.784 110.075C406.709 110.409 407.464 111.096 407.883 111.985C408.302 112.874 408.351 113.893 408.019 114.819L341.572 299.65C341.239 300.575 340.552 301.329 339.663 301.748C338.773 302.167 337.754 302.217 336.829 301.885Z" fill="white"/>
<path d="M343.118 84.3345C343.683 84.3345 344.141 83.8764 344.141 83.3113C344.141 82.7462 343.683 82.2881 343.118 82.2881C342.552 82.2881 342.094 82.7462 342.094 83.3113C342.094 83.8764 342.552 84.3345 343.118 84.3345Z" fill="white"/>
<path d="M132.779 111.282C143.571 100.491 143.571 82.9954 132.779 72.2045C121.987 61.4136 104.49 61.4136 93.6979 72.2045C82.9059 82.9954 82.9059 100.491 93.6979 111.282C104.49 122.073 121.987 122.073 132.779 111.282Z" fill="#D6BB15"/>
<path d="M116.132 104.929L102.454 95.6509L103.649 93.8915L114.972 101.573L123.157 75.9727L125.181 76.6197L116.132 104.929Z" fill="white"/>
<path d="M332.619 205.478C346.288 191.811 346.288 169.652 332.619 155.984C318.951 142.317 296.789 142.317 283.12 155.984C269.451 169.652 269.451 191.811 283.12 205.479C296.789 219.146 318.951 219.146 332.619 205.478Z" fill="#D6BB15"/>
<path d="M299.428 195.601L294.402 175.281L297.016 174.636L301.178 191.459L330.566 174.275L331.925 176.599L299.428 195.601Z" fill="white"/>
<path d="M80.6708 285.363H85.396L87.6438 267.14L80.6699 267.14L80.6708 285.363Z" fill="#A0616A"/>
<path d="M79.4653 283.821L88.7707 283.82H88.7711C90.3438 283.82 91.8521 284.445 92.9642 285.557C94.0763 286.669 94.7011 288.177 94.7012 289.75V289.942L79.4656 289.943L79.4653 283.821Z" fill="#2F2E41"/>
<path d="M43.8794 283.318L48.5514 284.025L53.4987 266.342L47.374 265.3L43.8794 283.318Z" fill="#A0616A"/>
<path d="M42.9184 281.612L52.1193 283.003L52.1197 283.003C53.6747 283.238 55.0727 284.081 56.006 285.347C56.9394 286.613 57.3317 288.197 57.0967 289.752L57.0679 289.943L42.0034 287.666L42.9184 281.612Z" fill="#2F2E41"/>
<path d="M71.2467 199.454L82.2345 197.061L88.3974 214.676L88.5901 282.694L79.6209 282.638L75.8716 227.586L51.9761 278.455L42.3408 277.299L63.3457 222.768C63.3457 222.768 62.1895 213.134 65.8509 208.317L65.0801 203.307L71.2467 199.454Z" fill="#2F2E41"/>
<path d="M60.9312 186.502C60.6814 185.752 60.6549 184.945 60.8548 184.18C61.0547 183.415 61.4725 182.724 62.0574 182.192L64.3799 180.081L70.9276 178.978L75.0217 178.234L84.7294 202.466L65.6201 204.642C64.2175 204.339 63.6573 203.572 64.4734 202.047L60.9312 186.502Z" fill="#D6BB15"/>
<path d="M84.0688 182.489L83.522 177.094L91.6128 174.447L106.137 169.072C106.291 168.463 106.626 167.915 107.099 167.501C107.571 167.086 108.158 166.825 108.783 166.752C109.407 166.678 110.038 166.796 110.594 167.089C111.15 167.383 111.604 167.838 111.895 168.395C112.186 168.951 112.302 169.583 112.226 170.207C112.151 170.831 111.888 171.417 111.471 171.888C111.055 172.359 110.506 172.693 109.896 172.845C109.287 172.997 108.645 172.96 108.057 172.74L94.0584 179.685L84.0688 182.489Z" fill="#A0616A"/>
<path d="M75.2601 186.752C74.4799 187.012 73.6413 187.042 72.8444 186.838C72.0476 186.635 71.3262 186.206 70.7666 185.603C70.2195 185.048 69.8465 184.344 69.6933 183.58C69.5401 182.815 69.6134 182.023 69.9041 181.299C70.1059 180.782 70.4181 180.315 70.819 179.931C71.2198 179.547 71.6996 179.255 72.225 179.075C76.8883 177.32 84.0863 175.834 84.1583 175.819L84.2728 175.796L89.3736 182.076L75.2601 186.752Z" fill="#D6BB15"/>
<path d="M68.0542 176.66C72.0237 176.66 75.2417 173.442 75.2417 169.473C75.2417 165.504 72.0237 162.286 68.0542 162.286C64.0846 162.286 60.8667 165.504 60.8667 169.473C60.8667 173.442 64.0846 176.66 68.0542 176.66Z" fill="#A0616A"/>
<path d="M62.2351 179.711C61.1205 179.71 60.0069 179.643 58.9006 179.507L58.7489 179.489L57.5912 173.204C57.1001 170.54 57.6476 167.789 59.1212 165.516C60.5947 163.243 62.8827 161.62 65.5153 160.98C65.691 160.935 65.8755 160.94 66.0486 160.994C66.2218 161.047 66.3767 161.148 66.4965 161.284L66.7726 161.187C67.8298 160.819 68.9492 160.662 70.0669 160.726C71.1847 160.79 72.2789 161.073 73.2871 161.56C74.2952 162.047 75.1977 162.728 75.9428 163.563C76.6879 164.399 77.2611 165.373 77.6297 166.43L77.6982 166.626L75.8555 167.268C75.2814 167.469 74.7591 167.794 74.3267 168.222C73.8942 168.649 73.5625 169.168 73.3556 169.739C73.1488 170.311 73.0719 170.922 73.1307 171.527C73.1895 172.132 73.3825 172.716 73.6956 173.237L75.5795 176.373L75.3789 176.474C71.3127 178.57 66.8098 179.679 62.2351 179.711Z" fill="#2F2E41"/>
<path d="M158.866 290.624H0.415879C0.305581 290.624 0.1998 290.58 0.121808 290.502C0.0438154 290.424 0 290.318 0 290.208C0 290.098 0.0438154 289.992 0.121808 289.914C0.1998 289.836 0.305581 289.792 0.415879 289.792H158.866C158.976 289.792 159.082 289.836 159.16 289.914C159.238 289.992 159.282 290.098 159.282 290.208C159.282 290.318 159.238 290.424 159.16 290.502C159.082 290.58 158.976 290.624 158.866 290.624Z" fill="#CACACA"/>
<path d="M439.584 311H281.134C281.024 311 280.918 310.956 280.84 310.878C280.762 310.8 280.718 310.694 280.718 310.584C280.718 310.474 280.762 310.368 280.84 310.29C280.918 310.212 281.024 310.168 281.134 310.168H439.584C439.694 310.168 439.8 310.212 439.878 310.29C439.956 310.368 440 310.474 440 310.584C440 310.694 439.956 310.8 439.878 310.878C439.8 310.956 439.694 311 439.584 311Z" fill="#CACACA"/>
<path d="M353.526 238.424C353.878 238.13 354.16 237.762 354.354 237.347C354.548 236.932 354.648 236.479 354.648 236.021C354.648 235.563 354.548 235.11 354.354 234.695C354.16 234.28 353.877 233.912 353.526 233.618L351.195 192.607L344.546 194.111L348.942 234.163C348.487 234.786 348.276 235.554 348.35 236.322C348.423 237.09 348.776 237.805 349.341 238.33C349.906 238.855 350.644 239.155 351.416 239.172C352.187 239.19 352.938 238.924 353.526 238.424H353.526Z" fill="#9F616A"/>
<path d="M380.526 243.764C380.164 243.483 379.869 243.125 379.66 242.717C379.451 242.309 379.334 241.861 379.318 241.403C379.301 240.945 379.386 240.489 379.564 240.067C379.743 239.645 380.012 239.267 380.353 238.961L381.197 197.893L387.896 199.154L384.953 239.339C385.431 239.946 385.669 240.706 385.623 241.476C385.578 242.246 385.251 242.973 384.705 243.518C384.16 244.063 383.433 244.39 382.662 244.435C381.892 244.48 381.132 244.242 380.526 243.764Z" fill="#9F616A"/>
<path d="M384.071 304.799L389.288 304.799L390.776 292.63L384.07 292.63L384.071 304.799Z" fill="#9F616A"/>
<path d="M382.741 303.096L393.015 303.096H393.015C394.752 303.096 396.417 303.786 397.645 305.013C398.873 306.241 399.562 307.906 399.563 309.642V309.855L382.741 309.856L382.741 303.096Z" fill="#2F2E41"/>
<path d="M351.517 304.799L356.734 304.799L358.222 284.679H351.517L351.517 304.799Z" fill="#9F616A"/>
<path d="M350.187 303.096L360.461 303.096H360.461C362.198 303.096 363.863 303.786 365.091 305.013C366.319 306.241 367.009 307.906 367.009 309.642V309.855L350.187 309.856L350.187 303.096Z" fill="#2F2E41"/>
<path d="M372.533 174.914C377.247 174.914 381.068 171.093 381.068 166.38C381.068 161.667 377.247 157.846 372.533 157.846C367.819 157.846 363.998 161.667 363.998 166.38C363.998 171.093 367.819 174.914 372.533 174.914Z" fill="#9F616A"/>
<path d="M383.381 186.073C383.381 186.073 387.174 186.389 387.49 188.286C387.806 190.182 387.49 195.872 387.49 195.872C387.49 195.872 390.019 203.458 387.49 205.354C384.961 207.25 378.323 207.567 378.323 207.567L383.381 186.073Z" fill="#E4E4E4"/>
<path d="M351.137 229.06L347.66 234.749C347.66 234.749 348.924 259.719 349.24 260.351C349.491 260.722 349.603 261.17 349.556 261.616V265.092L350.505 295.436C350.505 295.436 347.976 296.7 351.137 297.648C354.298 298.597 358.407 298.913 359.04 295.752C359.672 292.591 359.702 266.259 359.672 265.409L359.988 264.144L365.046 245.496L376.742 271.414L383.696 300.493C383.696 300.493 394.221 301.708 392.325 297.599C390.428 293.49 385.909 262.88 385.909 262.88C385.909 262.88 384.961 259.719 384.961 259.087C384.961 258.455 384.645 258.139 384.645 257.507C384.645 256.874 384.328 254.978 384.328 254.978L382.116 235.065L351.137 229.06Z" fill="#2F2E41"/>
<path d="M354.298 180.7C354.298 180.7 350.505 180.384 349.556 183.545C348.608 186.706 340.705 198.717 342.286 199.981C343.866 201.245 355.879 205.67 356.195 205.354C356.511 205.038 354.298 180.7 354.298 180.7Z" fill="#E4E4E4"/>
<path d="M382.472 160.938C382.114 159.605 381.609 158.272 380.581 157.351C379.538 156.425 378.201 155.898 376.807 155.865C375.217 154.944 373.431 154.409 371.596 154.305C369.76 154.201 367.926 154.53 366.241 155.266C366.059 154.898 365.764 154.598 365.4 154.408C365.298 155.286 365.197 156.164 365.095 157.041C364.703 156.746 364.311 156.451 363.919 156.156C363.9 156.676 363.88 157.195 363.861 157.715C363.502 157.406 363.142 157.097 362.783 156.788C362.706 158.628 364.237 160.22 365.969 160.847C367.7 161.474 369.598 161.359 371.437 161.272C372.346 161.229 373.38 161.244 373.993 161.916C374.635 162.619 374.514 163.698 374.53 164.65C374.552 165.99 375.928 165.333 376.617 166.482C376.914 166.862 377.099 167.318 377.152 167.797C377.087 168.233 376.929 168.649 376.69 169.018C376.182 170.066 375.172 173.329 375.654 174.389C376.546 173.89 377.438 173.391 378.33 172.892C378.33 172.892 384.206 167.392 382.472 160.938Z" fill="#2F2E41"/>
<path d="M380.852 204.406C380.852 204.406 387.174 188.286 386.858 187.022C386.541 185.757 378.654 180.57 378.654 180.57C378.354 180.532 378.069 180.496 377.781 180.46C377.824 180.349 377.853 180.232 377.867 180.114L378.003 178.876C378.045 178.492 377.933 178.107 377.691 177.806C377.449 177.505 377.098 177.312 376.714 177.269L366.691 176.171C366.307 176.129 365.922 176.241 365.62 176.483C365.319 176.724 365.126 177.076 365.084 177.46L364.967 178.53C364.438 178.399 364.414 178.348 364.414 178.348C364.414 178.348 355.563 179.752 353.35 180.384C351.137 181.016 353.034 205.038 353.034 205.038C353.034 205.038 351.453 227.164 350.505 227.796C349.557 228.428 350.505 228.112 349.557 230.64C349.432 230.974 351.178 229.112 351.927 229.534C356.86 232.315 376.86 238.817 381.8 238.542C383.379 222.063 380.219 216.733 380.219 216.733L380.852 204.406Z" fill="#E4E4E4"/>
</svg>
