<svg width="65" height="65" viewBox="0 0 65 65" fill="none" xmlns="http://www.w3.org/2000/svg">
<rect width="65" height="65" rx="12" fill="#F6CCA3"/>
<path d="M35.7605 35.7605L21.8123 42.2492L28.301 28.301L42.2492 21.8123M32.0307 15C29.7942 15 27.5796 15.4405 25.5134 16.2964C23.4471 17.1523 21.5696 18.4067 19.9882 19.9882C16.7943 23.1821 15 27.5139 15 32.0307C15 36.5476 16.7943 40.8794 19.9882 44.0733C21.5696 45.6547 23.4471 46.9092 25.5134 47.7651C27.5796 48.621 29.7942 49.0615 32.0307 49.0615C36.5476 49.0615 40.8794 47.2672 44.0733 44.0733C47.2672 40.8794 49.0615 36.5476 49.0615 32.0307C49.0615 29.7942 48.621 27.5796 47.7651 25.5134C46.9092 23.4471 45.6547 21.5696 44.0733 19.9882C42.4918 18.4067 40.6144 17.1523 38.5481 16.2964C36.4818 15.4405 34.2672 15 32.0307 15ZM32.0307 30.1574C31.5339 30.1574 31.0574 30.3547 30.7061 30.7061C30.3547 31.0574 30.1574 31.5339 30.1574 32.0307C30.1574 32.5276 30.3547 33.0041 30.7061 33.3554C31.0574 33.7067 31.5339 33.9041 32.0307 33.9041C32.5276 33.9041 33.0041 33.7067 33.3554 33.3554C33.7067 33.0041 33.9041 32.5276 33.9041 32.0307C33.9041 31.5339 33.7067 31.0574 33.3554 30.7061C33.0041 30.3547 32.5276 30.1574 32.0307 30.1574Z" fill="white"/>
</svg>
