<svg width="65" height="65" viewBox="0 0 65 65" fill="none" xmlns="http://www.w3.org/2000/svg">
<rect width="65" height="65" rx="12" fill="#DBE0A2"/>
<path d="M34.2442 18.9246V21.7155H36.4527C37.1344 21.7155 37.8048 21.8941 38.3967 22.2313L41.2892 23.8746C41.3744 23.9237 41.4686 23.9483 41.5672 23.9483H46.5763C47.0223 23.9483 47.4501 24.1247 47.7654 24.4387C48.0808 24.7528 48.258 25.1787 48.258 25.6228C48.258 26.067 48.0808 26.4929 47.7654 26.8069C47.4501 27.121 47.0223 27.2974 46.5763 27.2974H45.6189L50.3522 37.7735C50.4921 38.0834 50.534 38.4284 50.4723 38.7626C50.4106 39.0968 50.2483 39.4044 50.0069 39.6446L48.8186 38.4612L50.0047 39.6468L50.0024 39.6513L49.998 39.6557L49.9845 39.6691L49.971 39.6803L49.9486 39.7026L49.8477 39.7919C49.3769 40.1849 48.8589 40.522 48.3096 40.7967C47.2625 41.3191 45.7467 41.8103 43.7736 41.8103C42.2029 41.8288 40.6497 41.4817 39.2376 40.7967C38.6875 40.5222 38.1713 40.185 37.6994 39.7919L37.5985 39.7026L37.5626 39.6691L37.5492 39.6557L37.5402 39.6468V39.6446C37.2988 39.4044 37.1365 39.0968 37.0748 38.7626C37.0132 38.4284 37.055 38.0834 37.1949 37.7735L41.9305 27.2974H41.5672C40.8834 27.2974 40.2129 27.121 39.621 26.7816L36.7285 25.1383C36.6441 25.0896 36.5481 25.0642 36.4505 25.0647H34.2442V46.2759H39.8497C40.2957 46.2759 40.7234 46.4523 41.0388 46.7663C41.3542 47.0804 41.5314 47.5063 41.5314 47.9504C41.5314 48.3946 41.3542 48.8205 41.0388 49.1345C40.7234 49.4486 40.2957 49.625 39.8497 49.625H25.2753C24.8293 49.625 24.4016 49.4486 24.0862 49.1345C23.7708 48.8205 23.5936 48.3946 23.5936 47.9504C23.5936 47.5063 23.7708 47.0804 24.0862 46.7663C24.4016 46.4523 24.8293 46.2759 25.2753 46.2759H30.8808V25.0647H28.6745C28.5769 25.0642 28.4809 25.0896 28.3965 25.1383L25.5063 26.7839C24.9121 27.1188 24.2416 27.2974 23.5578 27.2974H23.1945L27.9301 37.7735C28.07 38.0834 28.1118 38.4284 28.0502 38.7626C27.9885 39.0968 27.8262 39.4044 27.5848 39.6446L26.3964 38.4612L27.5825 39.6468L27.5803 39.6513L27.5758 39.6557L27.5624 39.6691L27.5265 39.7026L27.4256 39.7919C26.9547 40.1849 26.4368 40.522 25.8874 40.7967C24.8403 41.3191 23.3246 41.8103 21.3514 41.8103C19.7808 41.8288 18.2275 41.4817 16.8154 40.7967C16.2654 40.5222 15.7492 40.185 15.2773 39.7919L15.1764 39.7026L15.1405 39.6691L15.127 39.6557L15.1181 39.6468V39.6446C14.8767 39.4044 14.7144 39.0968 14.6527 38.7626C14.591 38.4284 14.6329 38.0834 14.7728 37.7735L19.5083 27.2974H18.5487C18.1027 27.2974 17.6749 27.121 17.3596 26.8069C17.0442 26.4929 16.867 26.067 16.867 25.6228C16.867 25.1787 17.0442 24.7528 17.3596 24.4387C17.6749 24.1247 18.1027 23.9483 18.5487 23.9483H23.5578C23.6561 23.9487 23.7528 23.9233 23.838 23.8746L26.726 22.2291C27.3202 21.8941 27.9906 21.7155 28.6745 21.7155H30.8808V18.9246C30.8808 18.4804 31.058 18.0545 31.3734 17.7405C31.6888 17.4264 32.1165 17.25 32.5625 17.25C33.0085 17.25 33.4362 17.4264 33.7516 17.7405C34.067 18.0545 34.2442 18.4804 34.2442 18.9246ZM40.8475 37.8517C41.4865 38.1531 42.4574 38.4612 43.7736 38.4612C45.0897 38.4612 46.0606 38.1531 46.6997 37.8517L43.7736 31.3767L40.8475 37.8517ZM18.4253 37.8517C19.0644 38.1531 20.0353 38.4612 21.3514 38.4612C22.6676 38.4612 23.6385 38.1531 24.2775 37.8517L21.3514 31.3767L18.4253 37.8517Z" fill="white"/>
</svg>
