<svg width="60" height="60" viewBox="0 0 60 60" fill="none" xmlns="http://www.w3.org/2000/svg">
<path d="M31.9388 3.82077C31.2962 3.77333 30.6521 3.74957 30.0078 3.74953V0C30.7447 0.000359308 31.4814 0.0278745 32.2163 0.0824897L31.9388 3.82077ZM39.4529 5.50806C38.251 5.04426 37.0165 4.66955 35.7596 4.38695L36.5807 0.727409C38.0168 1.04987 39.4304 1.47732 40.8027 2.00975L39.4529 5.50806ZM44.5897 8.17023C44.0537 7.81271 43.5046 7.47502 42.9437 7.15786L44.7922 3.89576C46.0742 4.62218 47.3011 5.44178 48.463 6.34796L46.157 9.30634C45.6487 8.90975 45.1259 8.53204 44.5897 8.17398V8.17023ZM51.4664 14.8819C50.7247 13.8282 49.9063 12.8306 49.0179 11.8973L51.7326 9.31009C52.745 10.3787 53.6824 11.5223 54.5335 12.7222L51.4664 14.8819ZM54.256 19.9513C54.0099 19.3568 53.7423 18.7715 53.4536 18.1965L56.802 16.5092C57.4641 17.8256 58.0281 19.1891 58.4893 20.5887L54.9272 21.7623C54.7257 21.1506 54.5018 20.5465 54.256 19.9513ZM56.2433 29.3513C56.213 28.0628 56.0876 26.7782 55.8683 25.5081L59.5616 24.8706C59.8128 26.318 59.9591 27.7878 59.9966 29.2576L56.247 29.3513H56.2433ZM55.7521 35.1181C55.8758 34.4807 55.9771 33.847 56.0558 33.2058L59.7791 33.667C59.599 35.1299 59.3107 36.5775 58.9167 37.9977L55.3022 36.9966C55.4746 36.378 55.6246 35.7518 55.7521 35.1181ZM52.1825 44.0382C52.8725 42.9509 53.4799 41.811 54.0048 40.6337L57.4319 42.1522C56.832 43.5021 56.1383 44.7994 55.3509 46.0442L52.1825 44.0382ZM48.568 48.5564C49.0254 48.099 49.4641 47.6265 49.8803 47.1391L52.7225 49.5876C52.2412 50.1456 51.7396 50.6859 51.2189 51.2073L48.568 48.5564Z" fill="#FF9E1E"/>
<path d="M30.008 3.74953C25.6918 3.74984 21.4423 4.81457 17.6359 6.84941C13.8295 8.88425 10.5837 11.8264 8.18591 15.4153C5.78812 19.0041 4.3124 23.1289 3.88946 27.4243C3.46651 31.7197 4.10939 36.0531 5.76116 40.0407C7.41292 44.0283 10.0226 47.547 13.359 50.2852C16.6954 53.0233 20.6556 54.8964 24.8889 55.7385C29.1221 56.5807 33.4976 56.3658 37.628 55.1131C41.7583 53.8603 45.516 51.6083 48.5681 48.5564L51.2191 51.2073C47.731 54.6973 43.436 57.2731 38.7145 58.7064C33.9931 60.1397 28.991 60.3863 24.1514 59.4244C19.3119 58.4624 14.7843 56.3217 10.9699 53.1917C7.15547 50.0617 4.17195 46.0393 2.28368 41.4806C0.395416 36.922 -0.339295 31.9681 0.144649 27.0576C0.628593 22.1472 2.31625 17.4319 5.05808 13.3297C7.79992 9.22736 11.5113 5.86468 15.8633 3.53957C20.2154 1.21445 25.0737 -0.00130758 30.008 1.05534e-06V3.74953Z" fill="#FF9E1E"/>
<path d="M28.1326 11.2488C28.6298 11.2488 29.1067 11.4463 29.4582 11.7979C29.8098 12.1495 30.0073 12.6263 30.0073 13.1235V32.6586L42.1858 39.6177C42.605 39.8706 42.9086 40.2774 43.0318 40.7512C43.155 41.225 43.088 41.7281 42.8452 42.1532C42.6023 42.5782 42.2028 42.8914 41.7321 43.0258C41.2613 43.1602 40.7567 43.1051 40.3261 42.8723L27.2027 35.3733C26.9158 35.2094 26.6772 34.9725 26.5113 34.6868C26.3454 34.401 26.2579 34.0764 26.2578 33.746V13.1235C26.2578 12.6263 26.4553 12.1495 26.8069 11.7979C27.1585 11.4463 27.6354 11.2488 28.1326 11.2488Z" fill="#FF9E1E"/>
</svg>
