<svg width="20" height="17" viewBox="0 0 20 17" fill="none" xmlns="http://www.w3.org/2000/svg">
<path fill-rule="evenodd" clip-rule="evenodd" d="M9.95371 0.0310894C9.91401 0.0463888 8.14912 0.856092 6.03172 1.83035C3.91433 2.80465 1.96537 3.69921 1.70069 3.8183C1.16413 4.05979 1.02356 4.18694 0.716441 4.70863C-0.134895 6.15498 -0.232199 8.00524 0.449649 9.78235C0.663843 10.3406 0.895553 10.7276 1.08121 10.837C1.16162 10.8844 1.61542 11.0105 2.08967 11.1172C2.56387 11.2239 3.00063 11.3228 3.06015 11.337L3.16843 11.3627V13.298V15.2332L3.29528 15.3612C3.51554 15.5835 3.6832 15.5444 4.51586 15.0764C4.9199 14.8494 5.27004 14.6636 5.29405 14.6636C5.31802 14.6636 5.72869 15.0674 6.20655 15.5608C6.89235 16.2689 7.1088 16.4643 7.23349 16.4879C7.4331 16.5257 7.67901 16.4042 7.74214 16.2366C7.76977 16.1632 7.7882 14.825 7.7882 12.8886C7.7882 9.25834 7.77121 9.43552 8.15268 9.08514C8.43073 8.82971 8.45907 8.56311 8.23078 8.34955C8.11678 8.24289 7.86053 8.17859 6.12633 7.82126L4.15172 7.41444L3.9061 7.54009C3.77097 7.60916 3.58339 7.75652 3.48922 7.8676C3.22478 8.17941 3.16843 8.41056 3.16843 9.18388C3.16843 9.55311 3.15216 9.85419 3.13234 9.85293C3.11251 9.85171 2.83648 9.7909 2.51902 9.71785L1.94179 9.58506L1.81325 9.26251C1.55652 8.61824 1.46523 8.13861 1.46374 7.42673C1.46263 6.89008 1.48193 6.70217 1.57014 6.39176C1.65459 6.09451 1.86594 5.58201 1.93976 5.49541C1.94578 5.48832 4.11072 5.93093 6.75077 6.47894C9.39077 7.02691 11.6142 7.4753 11.6918 7.4753C11.771 7.4753 12.0907 7.34037 12.4211 7.16756C12.7447 6.9983 14.5315 6.0663 16.3917 5.09641C19.0026 3.7352 19.7972 3.30002 19.8762 3.18806C20.0926 2.88135 20.0165 2.39536 19.7166 2.16941C19.6383 2.1104 18.0632 1.74011 14.9093 1.0392C12.3293 0.465884 10.1751 -0.00174362 10.1221 4.88746e-06C10.0692 0.00180196 9.99341 0.01579 9.95371 0.0310894ZM18.4955 7.62951C18.3291 7.71713 12.6111 10.9041 11.5824 11.4826L11.2139 11.6898L10.0665 11.429C9.43543 11.2854 8.87033 11.1563 8.8108 11.1421L8.70253 11.1162V11.8699C8.70253 12.2845 8.7108 12.6237 8.72086 12.6237C8.73097 12.6237 9.32109 12.7565 10.0322 12.9187C11.1403 13.1716 11.3493 13.2065 11.4936 13.1627C11.5863 13.1346 12.2143 12.8032 12.8892 12.4263C18.8823 9.07931 19.346 8.81402 19.4425 8.67725C19.6921 8.32352 19.5598 7.79319 19.1784 7.61843C18.9199 7.49997 18.7358 7.50298 18.4955 7.62951Z" fill="black"/>
</svg>
