<svg width="220" height="220" viewBox="0 0 220 220" fill="none" xmlns="http://www.w3.org/2000/svg">
<circle cx="110" cy="110" r="110" fill="#FFFBD2"/>
<path d="M110 56C104.396 56 98.9182 57.6669 94.2588 60.7898C89.5995 63.9128 85.9679 68.3515 83.8234 73.5448C81.6789 78.7381 81.1178 84.4526 82.2111 89.9657C83.3043 95.4789 86.0028 100.543 89.9653 104.518C93.9278 108.493 98.9763 111.199 104.472 112.296C109.969 113.393 115.665 112.83 120.843 110.679C126.02 108.528 130.445 104.885 133.558 100.211C136.672 95.5371 138.333 90.0422 138.333 84.4211C138.333 76.8833 135.348 69.6543 130.035 64.3243C124.721 58.9944 117.514 56 110 56ZM110 101.474C106.638 101.474 103.351 100.474 100.555 98.5998C97.7597 96.726 95.5807 94.0628 94.294 90.9468C93.0074 87.8309 92.6707 84.4021 93.3266 81.0942C93.9826 77.7864 95.6017 74.7479 97.9792 72.363C100.357 69.9782 103.386 68.3541 106.683 67.6961C109.981 67.0381 113.399 67.3758 116.506 68.6665C119.612 69.9571 122.267 72.1428 124.135 74.9471C126.003 77.7514 127 81.0484 127 84.4211C127 88.9437 125.209 93.2811 122.021 96.4791C118.833 99.6771 114.509 101.474 110 101.474ZM161 164V158.316C161 147.763 156.821 137.642 149.382 130.18C141.943 122.718 131.854 118.526 121.333 118.526H98.6667C88.1464 118.526 78.057 122.718 70.6181 130.18C63.1792 137.642 59 147.763 59 158.316V164H70.3333V158.316C70.3333 150.778 73.3184 143.549 78.632 138.219C83.9455 132.889 91.1522 129.895 98.6667 129.895H121.333C128.848 129.895 136.054 132.889 141.368 138.219C146.682 143.549 149.667 150.778 149.667 158.316V164H161Z" fill="#EADA4A"/>
</svg>
