<svg width="20" height="22" viewBox="0 0 20 22" fill="none" xmlns="http://www.w3.org/2000/svg">
<path fill-rule="evenodd" clip-rule="evenodd" d="M6.03285 8.43994C5.61816 8.64994 5.14951 8.88744 4.65607 9.13771C3.02159 9.96672 1.51712 10.7279 1.31281 10.8292C0.898623 11.0347 0.790116 11.1429 0.553042 11.5868C-0.10413 12.8174 -0.179242 14.3918 0.347098 15.9039C0.51244 16.3789 0.691304 16.7081 0.834618 16.8013C0.896691 16.8416 1.24699 16.9489 1.61308 17.0397C1.97912 17.1305 2.31627 17.2146 2.36222 17.2267L2.44581 17.2486V18.8952V20.5419L2.54373 20.6508C2.71375 20.84 2.84317 20.8067 3.48593 20.4085C3.79782 20.2153 4.0681 20.0572 4.08664 20.0572C4.10514 20.0572 4.42215 20.4008 4.79102 20.8206C5.32041 21.4232 5.4875 21.5894 5.58375 21.6095C5.73783 21.6417 5.92765 21.5383 5.97639 21.3957C5.99771 21.3332 6.01194 20.1946 6.01194 18.5469C6.01194 15.9973 6.00301 15.6549 6.16548 15.4454C6.19985 15.4011 6.24188 15.3627 6.29329 15.3106C6.50793 15.0933 6.52981 14.8665 6.35358 14.6847C6.26558 14.594 6.06777 14.5393 4.7291 14.2352L3.20484 13.8891L3.01524 13.996C2.91093 14.0548 2.76613 14.1801 2.69343 14.2747C2.48931 14.54 2.44581 14.7367 2.44581 15.3947C2.44581 15.7088 2.43325 15.965 2.41795 15.9639C2.40264 15.9629 2.18956 15.9112 1.9445 15.849L1.49892 15.736L1.3997 15.4616C1.20152 14.9134 1.13105 14.5053 1.1299 13.8995C1.12905 13.4429 1.14394 13.283 1.21203 13.0189C1.27723 12.766 1.44038 12.3299 1.49736 12.2562C1.50201 12.2502 3.17319 12.6268 5.21112 13.0931C7.24902 13.5593 8.96537 13.9409 9.02525 13.9409C9.0864 13.9409 9.3332 13.8261 9.58826 13.679C9.83803 13.535 11.2173 12.742 12.6532 11.9167C14.6687 10.7585 15.2821 10.3882 15.343 10.293C15.5101 10.032 15.4513 9.61846 15.2199 9.42621C15.1973 9.40749 15.0142 9.35197 14.6673 9.25878C13.6177 10.1789 12.2424 10.7367 10.7369 10.7367C8.82574 10.7367 7.12451 9.8379 6.03285 8.43994ZM8.94078 17.3506C9.73491 16.8584 14.1488 14.1466 14.2772 14.0721C14.4627 13.9644 14.6048 13.9619 14.8044 14.0627C15.0988 14.2114 15.2009 14.6626 15.0083 14.9636C14.9338 15.08 14.5758 15.3057 9.94955 18.1536C9.42856 18.4742 8.94379 18.7562 8.87228 18.7801C8.76087 18.8174 8.59951 18.7877 7.74415 18.5726C7.19523 18.4345 6.73969 18.3215 6.73189 18.3215C6.72413 18.3215 6.71774 18.0329 6.71774 17.6802V17.0388L6.80132 17.0609C6.84727 17.073 7.28349 17.1828 7.77064 17.3049L8.65634 17.5269L8.94078 17.3506Z" fill="black"/>
<path d="M10.6516 0C12.0342 0 13.3602 0.549228 14.3378 1.52686C15.3154 2.50449 15.8647 3.83045 15.8647 5.21303C15.8647 6.50426 15.3915 7.69123 14.6135 8.60551L14.8301 8.82205H15.4637L19.4737 12.8321L18.2707 14.0351L14.2607 10.0251V9.39148L14.0441 9.17494C13.0982 9.98237 11.8953 10.426 10.6516 10.4261C9.26905 10.4261 7.94309 9.87684 6.96546 8.8992C5.98783 7.92157 5.4386 6.59561 5.4386 5.21303C5.4386 3.83045 5.98783 2.50449 6.96546 1.52686C7.94309 0.549228 9.26905 0 10.6516 0ZM10.6516 1.60401C8.64662 1.60401 7.04261 3.20802 7.04261 5.21303C7.04261 7.21804 8.64662 8.82205 10.6516 8.82205C12.6566 8.82205 14.2607 7.21804 14.2607 5.21303C14.2607 3.20802 12.6566 1.60401 10.6516 1.60401Z" fill="black"/>
</svg>
