<svg width="190" height="190" viewBox="0 0 190 190" fill="none" xmlns="http://www.w3.org/2000/svg">
<path fill-rule="evenodd" clip-rule="evenodd" d="M85.5314 0.640526C60.0446 4.07658 38.5385 19.6968 27.4592 42.8194C23.0833 51.9514 20.3623 63.7958 20.2964 73.9946L20.2748 77.3878L16.7151 79.4538C5.25928 86.1024 -1.40252 99.495 0.249867 112.554C1.86783 125.341 10.3248 136.028 22.2297 140.328C24.2368 141.053 26.1318 141.647 26.4403 141.647C26.8112 141.647 27.2348 142.919 27.689 145.399C29.6448 156.069 34.3461 165.205 41.9856 173.183C48.2722 179.747 55.6912 184.442 64.1507 187.208C70.6302 189.327 75.977 190 86.3293 190H95.0913V179.82V169.641H88.2931H81.4949V173.095V176.549L78.2021 176.269C60.8043 174.789 46.7779 162.925 41.8556 145.526C40.9557 142.346 40.9353 141.626 40.8053 108.457L40.6723 74.6308H37.2273H33.7823L34.0657 70.6039C35.1241 55.5749 41.2174 42.2676 51.9449 31.5591C60.746 22.7732 70.5303 17.4912 83.1167 14.7317C88.1839 13.6204 100.175 13.413 105.289 14.3474C118.05 16.6794 129.131 22.4678 138.238 31.5591C148.92 42.2226 155.03 55.5435 156.096 70.4953L156.391 74.6308H152.934H149.477V108.563V142.495H154.326C165.26 142.495 173.55 139.227 180.326 132.245C187.134 125.231 190.021 118.163 190 108.563C189.978 98.7307 186.69 90.9195 179.801 84.3328C176.979 81.6352 172.372 78.3349 170.679 77.7984C169.972 77.5748 169.871 77.1078 169.868 74.0722C169.852 58.2369 163.752 40.8959 153.802 28.3983C151.061 24.9559 144.656 18.6025 141.191 15.8883C125.493 3.59262 105.091 -1.99685 85.5314 0.640526ZM27.1095 108.563C27.1095 119.061 27.0075 127.65 26.883 127.65C25.9304 127.65 21.8337 125.016 19.8533 123.13C11.5935 115.265 11.4745 102.213 19.5894 94.2296C21.4946 92.3557 25.8166 89.5075 26.7908 89.4837C26.9659 89.4795 27.1095 98.0652 27.1095 108.563ZM165.72 90.5857C166.926 91.196 169.001 92.7306 170.329 93.9959C178.7 101.966 178.7 115.16 170.329 123.13C168.349 125.016 164.252 127.65 163.3 127.65C163.175 127.65 163.073 119.061 163.073 108.563C163.073 98.0652 163.175 89.4761 163.3 89.4761C163.425 89.4761 164.514 89.9753 165.72 90.5857Z" fill="#DEDDF8"/>
</svg>
