<svg width="391" height="256" viewBox="0 0 391 256" fill="none" xmlns="http://www.w3.org/2000/svg">
<path d="M326.71 8.28711H24.5762V151.723H326.71V8.28711Z" fill="#E6E6E6"/>
<path d="M318.071 20.5869H33.2158V140.26H318.071V20.5869Z" fill="white"/>
<path d="M326.581 0H24.4473V12.8417H326.581V0Z" fill="#D6BB15"/>
<path d="M33.986 8.31988C35.2998 8.31988 36.365 7.25425 36.365 5.93972C36.365 4.6252 35.2998 3.55957 33.986 3.55957C32.6721 3.55957 31.6069 4.6252 31.6069 5.93972C31.6069 7.25425 32.6721 8.31988 33.986 8.31988Z" fill="white"/>
<path d="M43.0157 8.31988C44.3296 8.31988 45.3948 7.25425 45.3948 5.93972C45.3948 4.6252 44.3296 3.55957 43.0157 3.55957C41.7018 3.55957 40.6367 4.6252 40.6367 5.93972C40.6367 7.25425 41.7018 8.31988 43.0157 8.31988Z" fill="white"/>
<path d="M52.046 8.31988C53.3599 8.31988 54.425 7.25425 54.425 5.93972C54.425 4.6252 53.3599 3.55957 52.046 3.55957C50.7321 3.55957 49.667 4.6252 49.667 5.93972C49.667 7.25425 50.7321 8.31988 52.046 8.31988Z" fill="white"/>
<path d="M33.8026 251.226H37.625L39.4436 236.475H33.8018L33.8026 251.226Z" fill="#9E616A"/>
<path d="M32.8271 249.977L40.3553 249.977H40.3556C41.6279 249.977 42.8481 250.482 43.7478 251.382C44.6475 252.283 45.153 253.503 45.1531 254.776V254.932L32.8274 254.933L32.8271 249.977Z" fill="#2F2E41"/>
<path d="M69.036 251.226H72.8584L74.677 236.475H69.0352L69.036 251.226Z" fill="#9E616A"/>
<path d="M68.0605 249.977L75.5887 249.977H75.589C76.8613 249.977 78.0815 250.482 78.9812 251.382C79.8809 252.283 80.3864 253.503 80.3865 254.776V254.932L68.0608 254.933L68.0605 249.977Z" fill="#2F2E41"/>
<path d="M64.4205 132.717L66.9148 148.626L43.2183 148.938L46.336 133.653L64.4205 132.717Z" fill="#9E616A"/>
<path d="M66.2273 144.741L73.7747 164.847L74.7101 248.17H68.3182L53.04 181.225L39.009 246.422H32.7729L37.1382 173.114C37.1382 173.114 35.8509 158.4 42.4388 149.718L44.0423 145.083L66.2273 144.741Z" fill="#2F2E41"/>
<path d="M33.8533 160.414C34.5131 160.235 35.1255 159.912 35.6473 159.47C36.169 159.028 36.5875 158.476 36.8733 157.855C37.159 157.233 37.3051 156.556 37.3011 155.872C37.2972 155.188 37.1433 154.513 36.8504 153.895L46.9314 121.013L39.5165 119.542L30.2964 151.773C29.2909 152.335 28.526 153.245 28.1468 154.333C27.7675 155.42 27.8002 156.609 28.2386 157.675C28.6771 158.74 29.4908 159.607 30.5256 160.112C31.5604 160.617 32.7445 160.725 33.8533 160.414Z" fill="#9E616A"/>
<path d="M47.149 141.503C47.0106 141.503 46.8726 141.489 46.737 141.462V141.462C46.2807 141.371 45.8668 141.133 45.5586 140.784C45.2504 140.435 45.0648 139.995 45.0301 139.531C44.7957 136.32 43.6343 130.731 41.5781 122.919C40.884 120.264 41.0377 117.458 42.0177 114.895C42.9978 112.331 44.755 110.139 47.0431 108.625C49.3311 107.112 52.0353 106.352 54.7766 106.453C57.5178 106.555 60.1587 107.511 62.329 109.19C63.7186 110.255 64.8783 111.59 65.7385 113.115C66.5986 114.641 67.1412 116.324 67.3338 118.065C68.3557 127.069 66.4291 136.109 65.5534 139.578C65.4383 140.03 65.178 140.433 64.8124 140.724C64.4469 141.014 63.9961 141.177 63.5292 141.187L47.1944 141.502C47.1792 141.503 47.1642 141.503 47.149 141.503Z" fill="#2F2E41"/>
<path d="M92.7855 112.62C92.6873 112.84 92.6067 113.067 92.5444 113.3L72.0978 120.251L68.1469 116.798L62.1587 122.082L68.5591 128.876C69.0762 129.424 69.7573 129.791 70.5001 129.919C71.2428 130.048 72.0073 129.932 72.6786 129.589L94.5577 118.408C95.3489 118.893 96.2691 119.126 97.1959 119.076C98.1228 119.025 99.0123 118.694 99.7462 118.125C100.48 117.557 101.024 116.778 101.304 115.893C101.585 115.008 101.59 114.058 101.318 113.17C101.046 112.282 100.511 111.498 99.7824 110.922C99.0543 110.346 98.1681 110.006 97.2418 109.946C96.3156 109.886 95.393 110.11 94.597 110.588C93.8009 111.065 93.1691 111.774 92.7855 112.62V112.62Z" fill="#9E616A"/>
<path d="M71.3849 120.631L63.9312 127.144C63.7192 127.33 63.4696 127.467 63.1997 127.547C62.9297 127.627 62.6457 127.648 62.3669 127.609C62.0881 127.569 61.8211 127.47 61.5841 127.318C61.3471 127.166 61.1457 126.964 60.9935 126.727L55.6621 118.421C54.7195 117.33 54.2479 115.91 54.3508 114.472C54.4537 113.033 55.1227 111.695 56.211 110.749C57.2993 109.804 58.718 109.329 60.1558 109.429C61.5936 109.529 62.9331 110.195 63.8803 111.282L71.3669 117.663C71.5812 117.845 71.7537 118.072 71.8725 118.327C71.9912 118.583 72.0536 118.861 72.0553 119.143C72.057 119.424 71.998 119.703 71.8823 119.96C71.7666 120.217 71.597 120.446 71.3849 120.631H71.3849Z" fill="#2F2E41"/>
<path d="M45.7539 129.432L36.5428 125.811C36.2807 125.708 36.0439 125.55 35.8485 125.347C35.6531 125.144 35.5036 124.902 35.4104 124.636C35.3171 124.37 35.2822 124.087 35.3081 123.807C35.3339 123.526 35.4199 123.255 35.5601 123.01L40.4746 114.451C41.0089 113.112 42.052 112.04 43.3752 111.47C44.6984 110.899 46.1937 110.877 47.5332 111.408C48.8726 111.939 49.9469 112.98 50.5205 114.302C51.0941 115.625 51.1202 117.121 50.5929 118.462L48.3794 128.049C48.316 128.323 48.1941 128.581 48.0222 128.804C47.8503 129.027 47.6323 129.211 47.3832 129.342C47.134 129.473 46.8595 129.549 46.5783 129.565C46.2972 129.58 46.016 129.535 45.7539 129.432V129.432Z" fill="#2F2E41"/>
<path d="M52.5819 104.426C58.1155 104.426 62.6013 99.9384 62.6013 94.4021C62.6013 88.8659 58.1155 84.3779 52.5819 84.3779C47.0484 84.3779 42.5625 88.8659 42.5625 94.4021C42.5625 99.9384 47.0484 104.426 52.5819 104.426Z" fill="#9E616A"/>
<path d="M156.567 256H0.478714C0.352012 255.999 0.230624 255.949 0.141162 255.859C0.0516996 255.769 0.00146484 255.648 0.00146484 255.521C0.00146484 255.394 0.0516996 255.273 0.141162 255.183C0.230624 255.093 0.352012 255.042 0.478714 255.042H156.567C156.693 255.042 156.815 255.093 156.904 255.183C156.994 255.273 157.044 255.394 157.044 255.521C157.044 255.648 156.994 255.769 156.904 255.859C156.815 255.949 156.693 255.999 156.567 256V256Z" fill="#CACACA"/>
<path d="M59.4745 90.3728C61.6242 90.3607 63.7738 90.3486 65.9235 90.3364C66.0764 88.8706 65.4244 87.4123 64.4744 86.2862C63.4732 85.2026 62.3313 84.2581 61.0793 83.4781C59.8463 82.6315 58.5689 81.7657 57.103 81.4698C55.8743 81.2218 54.6044 81.3939 53.3631 81.5666C51.7169 81.7956 50.0707 82.0246 48.4246 82.2536C46.6177 82.505 44.7271 82.7893 43.2595 83.8735C41.2747 85.3397 40.5155 87.9088 39.8778 90.2932L36.3477 103.491L57.1988 105.679C57.9531 105.809 58.7257 105.787 59.4712 105.613C59.8424 105.52 60.178 105.319 60.4364 105.037C60.6947 104.754 60.8644 104.402 60.9242 104.023C60.9843 103.173 60.3097 102.476 59.7619 101.823C58.455 100.203 57.6706 98.224 57.5123 96.1481C57.3541 94.0723 57.8295 91.9973 58.8756 90.1977L59.4745 90.3728Z" fill="#2F2E41"/>
<rect x="45" y="27" width="161" height="9" rx="4.5" fill="#E6E6E6"/>
<rect x="45" y="41" width="135" height="5" rx="2.5" fill="#E6E6E6"/>
<rect x="247" y="27" width="64" height="5" rx="2.5" fill="#E6E6E6"/>
<rect x="247" y="36" width="11" height="5" rx="2.5" fill="#E6E6E6"/>
<rect x="247" y="84" width="64" height="10" rx="5" fill="#E6E6E6"/>
<rect x="75" y="73" width="135" height="21" rx="10.5" fill="#E6E6E6"/>
<rect x="45" y="55" width="38" height="9" rx="4.5" fill="#E6E6E6"/>
</svg>
