<svg width="26" height="24" viewBox="0 0 26 24" fill="none" xmlns="http://www.w3.org/2000/svg">
<g clip-path="url(#clip0_967_3922)">
<path d="M0 18.0007C0 18.7079 0.30342 19.3862 0.843512 19.8863C1.3836 20.3864 2.11612 20.6673 2.87993 20.6673H23.0394C23.8032 20.6673 24.5358 20.3864 25.0759 19.8863C25.6159 19.3862 25.9194 18.7079 25.9194 18.0007V15.334H0V18.0007Z" fill="#138808" fill-opacity="0.6"/>
<path d="M0 8.66602H25.9194V15.3327H0V8.66602Z" fill="#EEEEEE" fill-opacity="0.6"/>
<path d="M25.9194 8.66732V6.00065C25.9194 5.29341 25.6159 4.61513 25.0759 4.11503C24.5358 3.61494 23.8032 3.33398 23.0394 3.33398H2.87993C2.11612 3.33398 1.3836 3.61494 0.843512 4.11503C0.30342 4.61513 0 5.29341 0 6.00065L0 8.66732H25.9194Z" fill="#FF9933" fill-opacity="0.6"/>
<path d="M12.96 14.6673C14.5505 14.6673 15.8399 13.4734 15.8399 12.0007C15.8399 10.5279 14.5505 9.33398 12.96 9.33398C11.3695 9.33398 10.0801 10.5279 10.0801 12.0007C10.0801 13.4734 11.3695 14.6673 12.96 14.6673Z" fill="#000080" fill-opacity="0.6"/>
<path d="M12.9598 14C14.1527 14 15.1197 13.1046 15.1197 12C15.1197 10.8954 14.1527 10 12.9598 10C11.7668 10 10.7998 10.8954 10.7998 12C10.7998 13.1046 11.7668 14 12.9598 14Z" fill="#EEEEEE" fill-opacity="0.6"/>
<path d="M12.9598 10L13.0649 11.5093L13.7856 10.1527L13.26 11.584L14.4868 10.5853L13.409 11.722L14.9548 11.2347L13.4897 11.9027L15.1197 12L13.4897 12.0973L14.9548 12.7647L13.409 12.278L14.4868 13.414L13.26 12.416L13.7856 13.8473L13.0649 12.4907L12.9598 14L12.8546 12.4907L12.1332 13.8473L12.6595 12.416L11.4319 13.414L12.5105 12.278L10.9647 12.7647L12.4298 12.0973L10.7998 12L12.4298 11.9027L10.9647 11.2347L12.5105 11.722L11.4319 10.5853L12.6595 11.584L12.1332 10.1527L12.8546 11.5093L12.9598 10Z" fill="#6666B3" fill-opacity="0.6"/>
<path d="M12.9602 12.6673C13.3579 12.6673 13.6802 12.3688 13.6802 12.0007C13.6802 11.6325 13.3579 11.334 12.9602 11.334C12.5626 11.334 12.2402 11.6325 12.2402 12.0007C12.2402 12.3688 12.5626 12.6673 12.9602 12.6673Z" fill="#000080" fill-opacity="0.6"/>
</g>
<defs>
<clipPath id="clip0_967_3922">
<rect width="25.9194" height="24" fill="white"/>
</clipPath>
</defs>
</svg>
