<svg width="19" height="17" viewBox="0 0 19 17" fill="none" xmlns="http://www.w3.org/2000/svg">
<path d="M18.6731 16.5185C18.5453 16.6691 18.3856 16.7902 18.2053 16.8734C18.0249 16.9566 17.8282 16.9998 17.629 17C17.4696 16.9998 17.3114 16.9726 17.1613 16.9195L10.1861 14.4657V8.09051C10.1861 7.911 10.1137 7.73884 9.98483 7.61191C9.85597 7.48498 9.6812 7.41367 9.49897 7.41367C9.31673 7.41367 9.14196 7.48498 9.0131 7.61191C8.88424 7.73884 8.81185 7.911 8.81185 8.09051V14.4657L1.83654 16.9195C1.57305 17.0123 1.28711 17.0235 1.01694 16.9519C0.746776 16.8802 0.505247 16.729 0.324644 16.5185C0.144041 16.308 0.0329674 16.0483 0.00627101 15.7739C-0.0204254 15.4996 0.0385271 15.2237 0.175248 14.9833L8.29977 0.692315C8.41913 0.482349 8.59316 0.307521 8.80393 0.185834C9.01469 0.0641465 9.25458 0 9.49888 0C9.74318 0 9.98307 0.0641465 10.1938 0.185834C10.4046 0.307521 10.5786 0.482349 10.698 0.692315L18.8224 14.9834C18.9607 15.2234 19.0205 15.4995 18.9938 15.7742C18.967 16.0489 18.855 16.3088 18.673 16.5185H18.6731Z" fill="#1D1D1D"/>
</svg>
