<svg width="20" height="24" viewBox="0 0 20 24" fill="none" xmlns="http://www.w3.org/2000/svg">
<path d="M10 0C6.55375 0 3.75 2.6916 3.75 6V9.6H2.5C1.83696 9.6 1.20107 9.85286 0.732233 10.3029C0.263392 10.753 0 11.3635 0 12V21.6C0 22.2365 0.263392 22.847 0.732233 23.2971C1.20107 23.7471 1.83696 24 2.5 24H17.5C18.163 24 18.7989 23.7471 19.2678 23.2971C19.7366 22.847 20 22.2365 20 21.6V12C20 11.3635 19.7366 10.753 19.2678 10.3029C18.7989 9.85286 18.163 9.6 17.5 9.6H16.25V6C16.25 2.6916 13.4462 0 10 0ZM6.25 6C6.25 4.0152 7.9325 2.4 10 2.4C12.0675 2.4 13.75 4.0152 13.75 6V9.6H6.25V6ZM11.25 18.8676V21.6H8.75V18.8676C8.31298 18.6273 7.96207 18.2656 7.74354 17.83C7.525 17.3945 7.44911 16.9055 7.52586 16.4277C7.6026 15.9499 7.8284 15.5057 8.17346 15.1535C8.51852 14.8014 8.96664 14.5579 9.45875 14.4552C9.82427 14.3776 10.2033 14.3798 10.5678 14.4615C10.9323 14.5433 11.2731 14.7026 11.565 14.9276C11.8569 15.1526 12.0924 15.4377 12.2542 15.7618C12.416 16.0858 12.5 16.4406 12.5 16.8C12.4993 17.2197 12.3834 17.6318 12.1639 17.9948C11.9445 18.3578 11.6292 18.6588 11.25 18.8676Z" fill="#B1AFAF"/>
</svg>
