<svg width="20" height="20" viewBox="0 0 20 20" fill="none" xmlns="http://www.w3.org/2000/svg">
<path d="M10.9391 1.55019C10.587 1.19801 10.1095 1.00011 9.6115 1H2.87778C2.37976 1 1.90214 1.19784 1.54999 1.54999C1.19784 1.90214 1 2.37976 1 2.87778V9.6115C1.00011 10.1095 1.19801 10.587 1.55019 10.9391L9.06131 18.4502C9.41345 18.8022 9.89098 19 10.3889 19C10.8868 19 11.3644 18.8022 11.7165 18.4502L18.4502 11.7165C18.8022 11.3644 19 10.8868 19 10.3889C19 9.89098 18.8022 9.41345 18.4502 9.06131L10.9391 1.55019V1.55019ZM5.69445 7.57223C5.19631 7.57211 4.71862 7.3741 4.36646 7.02177C4.01431 6.66944 3.81655 6.19165 3.81667 5.69351C3.81679 5.19537 4.0148 4.71768 4.36713 4.36553C4.71946 4.01337 5.19725 3.81561 5.69539 3.81573C6.19353 3.81586 6.67122 4.01386 7.02337 4.36619C7.37553 4.71852 7.57329 5.19631 7.57317 5.69445C7.57305 6.19259 7.37504 6.67028 7.02271 7.02244C6.67038 7.37459 6.19259 7.57235 5.69445 7.57223V7.57223Z" fill="black"/>
</svg>
