<svg width="473" height="327" viewBox="0 0 473 327" fill="none" xmlns="http://www.w3.org/2000/svg">
<path d="M370.71 114.815C371.115 115 371.503 115.217 371.873 115.464L408.83 99.6712L410.149 89.9238L424.916 89.833L424.043 112.191L375.264 125.109C375.161 125.448 375.037 125.78 374.894 126.105C374.189 127.611 373.055 128.876 371.634 129.739C370.213 130.603 368.569 131.026 366.909 130.957C365.248 130.889 363.645 130.33 362.301 129.352C360.956 128.374 359.931 127.019 359.352 125.459C358.774 123.899 358.669 122.203 359.05 120.583C359.432 118.964 360.282 117.493 361.496 116.356C362.709 115.219 364.231 114.466 365.87 114.192C367.51 113.919 369.193 114.136 370.71 114.817L370.71 114.815Z" fill="#F7D5BD"/>
<path d="M430.286 317.405H420.184L415.378 278.392H430.287L430.286 317.405Z" fill="#F7D5BD"/>
<path d="M412.968 314.516H432.451V326.794H400.702C400.702 323.536 401.994 320.412 404.295 318.109C406.595 315.806 409.715 314.512 412.968 314.512V314.516Z" fill="#2F2E41"/>
<path d="M469.573 314.547L459.521 315.538L450.918 277.184L465.756 275.725L469.573 314.547Z" fill="#F7D5BD"/>
<path d="M452.05 313.372L471.435 311.46L472.637 323.681L441.048 326.796C440.729 323.555 441.709 320.32 443.772 317.803C445.835 315.285 448.813 313.691 452.049 313.372H452.05Z" fill="#2F2E41"/>
<path d="M433.098 48.5435C444.275 48.5435 453.336 39.4715 453.336 28.2806C453.336 17.0896 444.275 8.01758 433.098 8.01758C421.921 8.01758 412.86 17.0896 412.86 28.2806C412.86 39.4715 421.921 48.5435 433.098 48.5435Z" fill="#F7D5BD"/>
<path d="M417.926 309.514C417.057 309.516 416.216 309.211 415.551 308.652C414.885 308.094 414.438 307.318 414.288 306.462C409.063 277.406 391.968 182.38 391.559 179.745C391.55 179.685 391.545 179.624 391.545 179.563V172.476C391.545 172.218 391.625 171.967 391.775 171.757L394.033 168.593C394.14 168.441 394.281 168.315 394.445 168.225C394.608 168.136 394.79 168.085 394.976 168.077C407.85 167.473 450.005 165.702 452.041 168.25C454.086 170.807 453.36 178.568 453.195 180.097L453.203 180.256L472.143 301.532C472.291 302.499 472.053 303.486 471.48 304.279C470.907 305.072 470.045 305.607 469.081 305.768L457.252 307.719C456.371 307.861 455.468 307.681 454.708 307.213C453.948 306.745 453.381 306.019 453.111 305.168C449.452 293.462 437.184 254.084 432.932 238.847C432.909 238.746 432.85 238.658 432.765 238.6C432.68 238.542 432.576 238.518 432.474 238.532C432.372 238.547 432.28 238.6 432.215 238.68C432.15 238.76 432.118 238.861 432.124 238.964C432.337 253.489 432.85 290.546 433.031 303.346L433.049 304.725C433.057 305.658 432.715 306.56 432.091 307.253C431.466 307.946 430.605 308.379 429.677 308.467L418.27 309.502C418.156 309.512 418.041 309.516 417.926 309.514Z" fill="#2F2E41"/>
<path d="M420.254 56.5128C416.723 58.6151 414.609 62.4775 413.396 66.4149C411.151 73.6923 409.8 81.2165 409.372 88.8212L408.09 111.59L392.224 171.957C405.976 183.607 413.907 180.958 432.418 171.429C450.929 161.9 453.044 174.606 453.044 174.606L456.745 123.242L462.033 67.1151C460.846 65.6839 459.502 64.3905 458.027 63.2591C453.139 59.4525 447.452 56.8064 441.394 55.5202C435.336 54.2339 429.066 54.3411 423.056 55.8337L420.254 56.5128Z" fill="#D6BB15"/>
<path d="M415.101 127.006C415.528 127.166 415.941 127.359 416.337 127.584L452.88 109.269L453.487 99.3472L468.56 98.3066L469.368 120.923L420.534 137.095C420.136 138.808 419.226 140.359 417.925 141.542C416.625 142.725 414.995 143.484 413.254 143.717C411.512 143.949 409.741 143.646 408.176 142.846C406.611 142.047 405.326 140.789 404.492 139.24C403.659 137.692 403.316 135.926 403.509 134.177C403.702 132.429 404.423 130.781 405.575 129.452C406.727 128.124 408.255 127.178 409.957 126.74C411.659 126.303 413.453 126.395 415.102 127.003L415.101 127.006Z" fill="#F7D5BD"/>
<path d="M461.77 67.3667C470.76 70.5436 472.345 104.966 472.345 104.966C461.767 99.1413 449.075 108.673 449.075 108.673C449.075 108.673 446.431 99.6698 443.257 88.0211C442.299 84.7443 442.184 81.278 442.924 77.9449C443.664 74.6118 445.234 71.5203 447.488 68.9581C447.488 68.9581 452.778 64.1881 461.77 67.3667Z" fill="#D6BB15"/>
<path d="M451.24 33.6383C448.719 31.6186 445.279 35.2882 445.279 35.2882L443.262 17.1152C443.262 17.1152 430.655 18.6275 422.585 16.6102C414.514 14.5928 413.255 23.9342 413.255 23.9342C412.839 20.1617 412.755 16.3599 413.003 12.5726C413.507 8.02817 420.062 3.48375 431.662 0.453943C443.261 -2.57587 449.312 10.5529 449.312 10.5529C457.385 14.5893 453.765 35.6603 451.24 33.6383Z" fill="#2F2E41"/>
<path d="M90.1039 61.4375C89.4345 61.4387 88.793 61.7147 88.3201 62.2049C87.8471 62.6951 87.5815 63.3593 87.5815 64.0519C87.5815 64.7444 87.8471 65.4087 88.3201 65.8988C88.793 66.389 89.4345 66.665 90.1039 66.6662H274.601C275.271 66.665 275.912 66.389 276.385 65.8988C276.858 65.4087 277.124 64.7444 277.124 64.0519C277.124 63.3593 276.858 62.6951 276.385 62.2049C275.912 61.7147 275.271 61.4387 274.601 61.4375H90.1039Z" fill="#CCCCCC"/>
<path d="M90.1078 77.124C89.4389 77.1235 88.7972 77.398 88.3235 77.8872C87.8498 78.3763 87.583 79.0402 87.5815 79.7329C87.5801 80.4256 87.8443 81.0906 88.316 81.5819C88.7876 82.0731 89.4283 82.3503 90.0972 82.3528H206.625C206.957 82.3528 207.285 82.2852 207.591 82.1538C207.898 82.0224 208.176 81.8298 208.41 81.587C208.645 81.3443 208.831 81.0561 208.958 80.7389C209.085 80.4217 209.15 80.0817 209.15 79.7384C209.15 79.3951 209.085 79.0551 208.958 78.7379C208.831 78.4207 208.645 78.1325 208.41 77.8898C208.176 77.647 207.898 77.4544 207.591 77.323C207.285 77.1916 206.957 77.124 206.625 77.124H90.1078Z" fill="#CCCCCC"/>
<path d="M271.891 42.5859C271.891 48.6656 267.21 53.5942 261.435 53.5942C255.661 53.5942 250.979 48.6657 250.979 42.5859C250.979 42.4481 250.982 42.3112 250.987 42.1746C251.093 36.096 255.861 31.2605 261.634 31.374C267.408 31.4876 272.001 36.5073 271.893 42.5859H271.891Z" fill="#D6BB15"/>
<path d="M257.841 47.0585L254.901 43.0567L255.598 42.5233L257.993 45.7834L267.422 37.9082L267.973 38.596L257.841 47.0585Z" fill="white"/>
<path d="M90.1039 154.248C89.4345 154.249 88.793 154.525 88.3201 155.015C87.8471 155.506 87.5815 156.17 87.5815 156.862C87.5815 157.555 87.8471 158.219 88.3201 158.709C88.793 159.2 89.4345 159.476 90.1039 159.477H274.601C275.271 159.476 275.912 159.2 276.385 158.709C276.858 158.219 277.124 157.555 277.124 156.862C277.124 156.17 276.858 155.506 276.385 155.015C275.912 154.525 275.271 154.249 274.601 154.248H90.1039Z" fill="#CCCCCC"/>
<path d="M90.1078 169.935C89.4389 169.934 88.7972 170.209 88.3235 170.698C87.8498 171.187 87.583 171.851 87.5815 172.543C87.5801 173.236 87.8443 173.901 88.316 174.392C88.7876 174.884 89.4283 175.161 90.0972 175.163H206.625C207.295 175.163 207.937 174.888 208.41 174.398C208.884 173.907 209.15 173.242 209.15 172.549C209.15 171.856 208.884 171.191 208.41 170.7C207.937 170.21 207.295 169.935 206.625 169.935H90.1078Z" fill="#CCCCCC"/>
<path d="M271.891 135.396C271.891 141.476 266.917 146.405 260.782 146.405C254.646 146.405 249.672 141.476 249.672 135.396C249.672 135.259 249.675 135.122 249.681 134.985C249.793 128.907 254.859 124.071 260.993 124.185C267.128 124.298 272.007 129.318 271.893 135.396H271.891Z" fill="#D6BB15"/>
<path d="M256.828 139.869L253.594 135.867L254.36 135.334L256.995 138.594L267.367 130.719L267.973 131.407L256.828 139.869Z" fill="white"/>
<path d="M90.1039 247.059C89.4345 247.06 88.793 247.336 88.3201 247.826C87.8471 248.316 87.5815 248.98 87.5815 249.673C87.5815 250.366 87.8471 251.03 88.3201 251.52C88.793 252.01 89.4345 252.286 90.1039 252.287H274.601C275.271 252.286 275.912 252.01 276.385 251.52C276.858 251.03 277.124 250.366 277.124 249.673C277.124 248.98 276.858 248.316 276.385 247.826C275.912 247.336 275.271 247.06 274.601 247.059H90.1039Z" fill="#CCCCCC"/>
<path d="M90.1078 262.744C89.4389 262.744 88.7972 263.018 88.3235 263.507C87.8498 263.996 87.583 264.66 87.5815 265.353C87.5801 266.046 87.8443 266.711 88.316 267.202C88.7876 267.693 89.4283 267.97 90.0972 267.973H206.625C207.295 267.973 207.937 267.697 208.41 267.207C208.884 266.717 209.15 266.052 209.15 265.359C209.15 264.665 208.884 264 208.41 263.51C207.937 263.02 207.295 262.744 206.625 262.744H90.1078Z" fill="#CCCCCC"/>
<path d="M271.891 228.207C271.891 234.287 266.917 239.215 260.782 239.215C254.646 239.215 249.672 234.287 249.672 228.207C249.672 228.069 249.675 227.932 249.681 227.796C249.793 221.717 254.859 216.882 260.993 216.995C267.128 217.109 272.007 222.128 271.893 228.207H271.891Z" fill="#D6BB15"/>
<path d="M256.828 232.68L253.594 228.678L254.36 228.144L256.995 231.405L267.367 223.529L267.973 224.217L256.828 232.68Z" fill="white"/>
<path d="M52.9902 327L52.1955 326.702C52.0208 326.636 34.64 319.977 26.4981 304.878C18.3559 289.778 22.3428 271.597 22.384 271.416L22.5716 270.588L23.366 270.886C23.5406 270.952 40.921 277.611 49.0633 292.71C57.2055 307.81 53.2187 325.991 53.1774 326.172L52.9902 327ZM27.8019 304.175C34.6856 316.942 48.4204 323.486 51.9004 324.98C52.5621 321.25 54.6371 306.167 47.7595 293.413C40.8827 280.66 27.1424 274.106 23.661 272.608C22.999 276.34 20.9247 291.422 27.8019 304.175Z" fill="#3F3D56"/>
<path d="M32.7201 299.581C47.3522 308.384 52.9875 325.87 52.9875 325.87C52.9875 325.87 34.8995 329.083 20.2674 320.28C5.63528 311.476 0 293.991 0 293.991C0 293.991 18.088 290.778 32.7201 299.581Z" fill="#EBDC4E"/>
</svg>
