<svg width="20" height="20" viewBox="0 0 20 20" fill="none" xmlns="http://www.w3.org/2000/svg">
<path fill-rule="evenodd" clip-rule="evenodd" d="M13.4854 0.0429196C14.3003 0.204123 14.967 0.673033 15.3074 1.32446C15.6894 2.05539 15.6706 2.99719 15.2575 3.82982C15.1074 4.1323 14.7726 4.60687 14.7096 4.60627C14.6935 4.60611 14.4025 4.3766 14.0629 4.09626C13.7234 3.81591 12.7823 3.04276 11.9717 2.37815C11.1611 1.71358 10.48 1.15286 10.4581 1.1321C10.3753 1.05379 11.0497 0.544294 11.5299 0.322426C12.1346 0.0429992 12.919 -0.06909 13.4854 0.0429196ZM11.6906 3.85527L13.8297 5.61344L13.6727 5.7772C13.5865 5.86726 11.8541 7.77823 9.82306 10.0238C7.79207 12.2694 6.10783 14.1226 6.08026 14.142C6.01346 14.1892 1.82035 10.7151 1.85019 10.6373C1.87441 10.5742 9.49046 2.10434 9.52683 2.10004C9.54041 2.09841 10.5141 2.88829 11.6906 3.85527ZM3.05481 13.4234C4.19709 14.3688 5.12021 15.1533 5.10619 15.1667C5.06349 15.2075 0.0697861 16.5976 0.0471611 16.575C0.023262 16.5511 0.918741 11.7706 0.95463 11.7306C0.967417 11.7163 1.91249 12.4781 3.05481 13.4234ZM19.989 15.451L19.9781 16.0983L14.6704 16.1084L9.36268 16.1185V15.4611V14.8037H14.6813H19.3526C19.7084 14.8037 19.9951 15.0953 19.989 15.451ZM19.989 19.3148L19.9781 19.9621H10H0.0219078L0.0109539 19.3148L0 18.6675H10H19.3526C19.7084 18.6675 19.9951 18.9591 19.989 19.3148Z" fill="black"/>
</svg>
