<svg width="175" height="63" viewBox="0 0 175 63" fill="none" xmlns="http://www.w3.org/2000/svg">
<g clip-path="url(#clip0_1308_3227)">
<path d="M31.0891 8.44255C29.3978 6.75273 27.06 5.70898 24.4734 5.70898H2.53711V40.5H8.75489V24.4962H25.4185V24.4465C25.518 24.4465 25.6174 24.4465 25.7169 24.4465C26.662 24.347 27.5574 24.0986 28.403 23.701C31.6362 22.2099 33.8747 18.9296 33.8747 15.1522C33.8747 12.5678 32.8301 10.2318 31.1388 8.542L31.0891 8.44255ZM25.8164 18.0846C25.4185 18.2835 24.9708 18.3829 24.5231 18.3829H8.75489V11.9714H24.5231C25.6174 11.9714 26.3636 12.4684 26.7615 12.866C27.1097 13.2139 27.7066 14.0091 27.7066 15.1522C27.7066 16.3948 26.9605 17.5379 25.8164 18.0349V18.0846ZM48.0247 40.5V5.70898H41.8069V40.5H48.0247ZM66.4095 34.2873C64.2212 33.9891 62.4802 32.2496 62.1818 30.0627V5.75869H55.964V29.4663C55.964 31.2059 56.362 32.846 57.1081 34.337C58.1526 36.5239 59.9434 38.3132 62.132 39.4066C63.6243 40.1521 65.2656 40.5497 67.0066 40.5497H84.6655V34.337L66.4095 34.2873ZM104.94 5.70898C95.3405 5.70898 87.5305 13.5121 87.5305 23.1045C87.5305 32.6969 95.3405 40.5 104.94 40.5C114.541 40.5 122.35 32.6969 122.35 23.1045C122.35 13.5121 114.541 5.70898 104.94 5.70898ZM104.94 34.2873C98.7723 34.2873 93.7488 29.2675 93.7488 23.1045C93.7488 16.9415 98.7723 11.9217 104.94 11.9217C111.109 11.9217 116.133 16.9415 116.133 23.1045C116.133 29.2675 111.109 34.2873 104.94 34.2873ZM125.762 5.75869V11.9714H140.038V40.5497H146.256V11.9714H160.532V5.75869H125.762Z" fill="white"/>
<path d="M9.76466 61.1266V62.3571H2.57422V52.457H9.5665V53.6875H3.98966V56.7282H8.95786V57.9303H3.98966V61.1266H9.76466Z" fill="white"/>
<path d="M22.702 62.3571L19.7296 58.2698L16.7996 62.3571H15.1719L18.8945 57.2797L15.3983 52.457H17.0119L19.7862 56.2615L22.5322 52.457H24.075L20.5789 57.2373L24.3298 62.3571H22.702Z" fill="white"/>
<path d="M36.3709 59.8821H31.1054L30.0155 62.3571H28.5576L33.0446 52.457H34.4459L38.947 62.3571H37.4607L36.3709 59.8821ZM35.8754 58.7506L33.7381 53.8996L31.6008 58.7506H35.8754Z" fill="white"/>
<path d="M54.1413 62.3571L54.1271 55.1442L50.5461 61.1549H49.895L46.3139 55.1866V62.3571H44.9551V52.457H46.1157L50.2488 59.4154L54.3253 52.457H55.486L55.5001 62.3571H54.1413Z" fill="white"/>
<path d="M63.002 52.457H64.4176V62.3571H63.002V52.457Z" fill="white"/>
<path d="M80.435 52.457V62.3571H79.2743L73.3295 54.9745V62.3571H71.9141V52.457H73.0747L79.0196 59.8397V52.457H80.435Z" fill="white"/>
<path d="M104.295 53.6875H100.898V52.457H109.094V53.6875H105.697V62.3571H104.295V53.6875Z" fill="white"/>
<path d="M115.165 52.457H116.58V62.3571H115.165V52.457Z" fill="white"/>
<path d="M128.549 62.47C127.549 62.47 126.648 62.2531 125.846 61.8194C125.044 61.3763 124.412 60.7681 123.949 59.995C123.496 59.2219 123.27 58.3592 123.27 57.4068C123.27 56.4546 123.496 55.5919 123.949 54.8187C124.412 54.0456 125.044 53.4421 125.846 53.0084C126.648 52.5653 127.549 52.3438 128.549 52.3438C129.54 52.3438 130.437 52.5653 131.238 53.0084C132.041 53.4421 132.668 54.0456 133.121 54.8187C133.574 55.5824 133.8 56.4451 133.8 57.4068C133.8 58.3685 133.574 59.236 133.121 60.0091C132.668 60.7729 132.041 61.3763 131.238 61.8194C130.437 62.2531 129.54 62.47 128.549 62.47ZM128.549 61.2113C129.276 61.2113 129.927 61.0463 130.502 60.7163C131.088 60.3863 131.545 59.9337 131.875 59.3585C132.215 58.774 132.385 58.1234 132.385 57.4068C132.385 56.6903 132.215 56.0444 131.875 55.4693C131.545 54.8847 131.088 54.4274 130.502 54.0974C129.927 53.7674 129.276 53.6024 128.549 53.6024C127.823 53.6024 127.162 53.7674 126.568 54.0974C125.983 54.4274 125.52 54.8847 125.18 55.4693C124.85 56.0444 124.685 56.6903 124.685 57.4068C124.685 58.1234 124.85 58.774 125.18 59.3585C125.52 59.9337 125.983 60.3863 126.568 60.7163C127.162 61.0463 127.823 61.2113 128.549 61.2113Z" fill="white"/>
<path d="M149.015 52.457V62.3571H147.854L141.91 54.9745V62.3571H140.494V52.457H141.655L147.6 59.8397V52.457H149.015Z" fill="white"/>
<path d="M159.397 62.47C158.652 62.47 157.93 62.3569 157.231 62.1306C156.543 61.8949 156 61.5932 155.604 61.2255L156.127 60.1223C156.505 60.4618 156.986 60.7399 157.571 60.9567C158.165 61.1641 158.774 61.2679 159.397 61.2679C160.218 61.2679 160.832 61.1312 161.237 60.8577C161.643 60.5748 161.846 60.2024 161.846 59.7405C161.846 59.401 161.732 59.1276 161.506 58.9201C161.289 58.7033 161.016 58.5383 160.685 58.4251C160.365 58.312 159.906 58.1848 159.312 58.0433C158.567 57.8642 157.963 57.685 157.5 57.5058C157.047 57.3267 156.656 57.0533 156.325 56.6855C156.005 56.3084 155.844 55.804 155.844 55.1723C155.844 54.6443 155.981 54.1681 156.255 53.7438C156.538 53.3195 156.962 52.9801 157.529 52.7255C158.095 52.471 158.798 52.3438 159.638 52.3438C160.223 52.3438 160.798 52.4192 161.364 52.57C161.931 52.7208 162.417 52.9377 162.822 53.2205L162.355 54.352C161.94 54.088 161.497 53.89 161.025 53.758C160.553 53.6165 160.09 53.5458 159.638 53.5458C158.836 53.5458 158.232 53.692 157.826 53.9843C157.429 54.2766 157.231 54.6537 157.231 55.1157C157.231 55.4551 157.345 55.7333 157.571 55.9501C157.797 56.1576 158.076 56.3226 158.406 56.4451C158.746 56.5583 159.204 56.6808 159.779 56.8128C160.525 56.992 161.124 57.1712 161.577 57.3503C162.03 57.5294 162.417 57.8029 162.737 58.1706C163.068 58.5383 163.233 59.0333 163.233 59.6555C163.233 60.1741 163.091 60.6503 162.808 61.084C162.525 61.5083 162.096 61.8477 161.52 62.1023C160.945 62.3474 160.237 62.47 159.397 62.47Z" fill="white"/>
<path d="M92.3788 53.0696C92.3254 52.9631 92.243 52.8734 92.1413 52.8107C92.0397 52.748 91.9226 52.7148 91.8036 52.7148C91.6839 52.7148 91.5668 52.748 91.4652 52.8107C91.3635 52.8734 91.2818 52.9631 91.2284 53.0696L86.7247 62.0696C86.6687 62.1812 86.6462 62.3067 86.6604 62.4307C86.6752 62.5546 86.7247 62.6717 86.8045 62.7678C86.8843 62.8638 86.9904 62.9346 87.1095 62.9714C87.2291 63.0083 87.3565 63.0097 87.4768 62.9754L90.6937 62.0568C90.8282 62.0184 90.9459 61.9372 91.0302 61.8256C91.1145 61.7141 91.1602 61.5781 91.1602 61.4383V58.4998C91.1602 58.3294 91.2277 58.1659 91.3487 58.0453C91.469 57.9247 91.6324 57.857 91.8036 57.857C91.9741 57.857 92.1375 57.9247 92.2584 58.0453C92.3788 58.1659 92.447 58.3294 92.447 58.4998V61.4383C92.447 61.5781 92.492 61.7141 92.5763 61.8256C92.6606 61.9372 92.7789 62.0184 92.9134 62.0568L96.1303 62.9748C96.25 63.0092 96.3774 63.0078 96.4971 62.971C96.6161 62.9343 96.7222 62.8636 96.802 62.7676C96.8818 62.6717 96.932 62.5546 96.9461 62.4307C96.9609 62.3067 96.9384 62.1813 96.8831 62.0696L92.3794 53.0696H92.3788Z" fill="url(#paint0_linear_1308_3227)"/>
<path d="M120.221 19.3659C116.806 18.2285 110.039 18.2684 109.586 18.2285C109.586 18.2285 109.405 19.705 109.976 20.5033C110.547 21.3015 123.635 20.5033 120.221 19.3659Z" fill="url(#paint1_linear_1308_3227)"/>
<path d="M89.4209 19.3659C92.8353 18.2285 99.6024 18.2684 100.055 18.2285C100.055 18.2285 100.236 19.705 99.6649 20.5033C99.0942 21.3015 86.0065 20.5033 89.4209 19.3659Z" fill="url(#paint2_linear_1308_3227)"/>
<path d="M104.754 0C104.398 5.2782 102.941 16.0105 102.941 16.7143H106.802L104.754 0Z" fill="url(#paint3_linear_1308_3227)"/>
<path d="M104.723 32.7864C109.438 32.7864 113.26 28.4581 113.26 23.1188C113.26 17.7795 109.438 13.4512 104.723 13.4512C100.008 13.4512 96.1855 17.7795 96.1855 23.1188C96.1855 28.4581 100.008 32.7864 104.723 32.7864Z" fill="url(#paint4_linear_1308_3227)"/>
<path d="M34.6789 17.1788L34.6758 17.8084C38.6642 18.6542 54.0296 21.7424 68.3387 24.5621C75.4938 25.9721 82.3863 27.3151 87.4613 28.2774C89.9988 28.7585 92.0834 29.1446 93.52 29.3964C94.2381 29.5221 94.7965 29.6149 95.1703 29.6691C95.3556 29.6961 95.5023 29.7145 95.6014 29.7224C95.6458 29.7258 95.7018 29.7291 95.7507 29.7245C95.7648 29.7233 95.786 29.7207 95.8098 29.7147C95.8285 29.7101 95.8793 29.6966 95.9314 29.6582C95.9938 29.6118 96.0762 29.5109 96.062 29.3645C96.0505 29.2512 95.9855 29.1829 95.9655 29.1635C95.8858 29.0837 95.7635 28.9073 95.6117 28.6411C95.4643 28.3835 95.3041 28.0681 95.1439 27.7332C94.8235 27.0637 94.5121 26.3315 94.323 25.8625L94.2496 25.6798L94.0534 25.6623C91.4651 25.4323 81.2147 23.8535 69.9324 22.1155C67.6252 21.7601 65.2743 21.3981 62.9377 21.0395C56.0611 19.9846 49.3073 18.961 44.13 18.2299C41.5416 17.8644 39.345 17.5717 37.7233 17.3846C36.9128 17.2911 36.2429 17.2237 35.738 17.1868C35.4859 17.1685 35.2716 17.1574 35.0999 17.1549C34.936 17.1524 34.787 17.157 34.6789 17.1788Z" fill="url(#paint5_linear_1308_3227)" stroke="white"/>
<path d="M174.819 17.1788L174.823 17.8084C170.834 18.6542 155.469 21.7424 141.16 24.5621C134.004 25.9721 127.112 27.3151 122.037 28.2774C119.499 28.7585 117.415 29.1446 115.978 29.3964C115.26 29.5221 114.702 29.6149 114.328 29.6691C114.143 29.6961 113.997 29.7145 113.897 29.7224C113.852 29.7258 113.796 29.7291 113.748 29.7245C113.733 29.7233 113.712 29.7207 113.688 29.7147C113.67 29.7101 113.619 29.6966 113.567 29.6582C113.504 29.6118 113.422 29.5109 113.436 29.3645C113.448 29.2512 113.513 29.1829 113.533 29.1635C113.612 29.0837 113.735 28.9073 113.887 28.6411C114.034 28.3835 114.194 28.0681 114.354 27.7332C114.675 27.0637 114.986 26.3315 115.175 25.8625L115.249 25.6798L115.445 25.6623C118.033 25.4323 128.284 23.8535 139.567 22.1155C141.874 21.7601 144.224 21.3981 146.561 21.0395C153.437 19.9846 160.191 18.961 165.368 18.2299C167.956 17.8644 170.154 17.5717 171.775 17.3846C172.586 17.2911 173.255 17.2237 173.76 17.1868C174.013 17.1685 174.227 17.1574 174.399 17.1549C174.562 17.1524 174.711 17.157 174.819 17.1788Z" fill="url(#paint6_linear_1308_3227)" stroke="white"/>
<path d="M99.7246 22.4997C99.7246 20.3695 101.453 18.6426 103.585 18.6426H104.228V23.1426H99.7246V22.4997Z" fill="white"/>
<path d="M105.515 18.6426H106.158C108.29 18.6426 110.018 20.3695 110.018 22.4997V23.1426H105.515V18.6426Z" fill="white"/>
</g>
<defs>
<linearGradient id="paint0_linear_1308_3227" x1="91.8036" y1="52.7148" x2="91.8036" y2="63.0002" gradientUnits="userSpaceOnUse">
<stop stop-color="#E5D322"/>
<stop offset="0.559457" stop-color="#C2A00A"/>
<stop offset="1" stop-color="#E3D06E"/>
</linearGradient>
<linearGradient id="paint1_linear_1308_3227" x1="120.739" y1="20.2985" x2="109.49" y2="19.307" gradientUnits="userSpaceOnUse">
<stop stop-color="#E5D322"/>
<stop offset="0.559457" stop-color="#C2A00A"/>
<stop offset="1" stop-color="#E3D06E"/>
</linearGradient>
<linearGradient id="paint2_linear_1308_3227" x1="88.9017" y1="20.2985" x2="100.152" y2="19.307" gradientUnits="userSpaceOnUse">
<stop stop-color="#E5D322"/>
<stop offset="0.559457" stop-color="#C2A00A"/>
<stop offset="1" stop-color="#E3D06E"/>
</linearGradient>
<linearGradient id="paint3_linear_1308_3227" x1="104.872" y1="0" x2="104.872" y2="16.7143" gradientUnits="userSpaceOnUse">
<stop stop-color="#E5D322"/>
<stop offset="0.559457" stop-color="#C2A00A"/>
<stop offset="1" stop-color="#E3D06E"/>
</linearGradient>
<linearGradient id="paint4_linear_1308_3227" x1="104.723" y1="13.4512" x2="104.723" y2="32.7863" gradientUnits="userSpaceOnUse">
<stop stop-color="#E5D322"/>
<stop offset="0.559457" stop-color="#C2A00A"/>
<stop offset="1" stop-color="#E3D06E"/>
</linearGradient>
<linearGradient id="paint5_linear_1308_3227" x1="65.2305" y1="17.4167" x2="65.2536" y2="29.4648" gradientUnits="userSpaceOnUse">
<stop stop-color="#E5D322"/>
<stop offset="0.559457" stop-color="#C2A00A"/>
<stop offset="1" stop-color="#E3D06E"/>
</linearGradient>
<linearGradient id="paint6_linear_1308_3227" x1="144.268" y1="17.4167" x2="144.245" y2="29.4648" gradientUnits="userSpaceOnUse">
<stop stop-color="#E5D322"/>
<stop offset="0.559457" stop-color="#C2A00A"/>
<stop offset="1" stop-color="#E3D06E"/>
</linearGradient>
<clipPath id="clip0_1308_3227">
<rect width="175" height="63" fill="white"/>
</clipPath>
</defs>
</svg>
